<svg width="500" height="500" viewBox="0 0 500 500" fill="none" xmlns="http://www.w3.org/2000/svg">
<path d="M378.32 69.45C375.64 73.63 366.97 82.08 351.12 78.24C337.61 74.97 335.56 62.11 337.22 58.71L378.32 69.45Z" fill="#EBEBEB"/>
<path d="M378.32 69.45C375.64 73.63 366.97 82.08 351.12 78.24C337.61 74.97 335.56 62.11 337.22 58.71L378.32 69.45Z" fill="#6F4439"/>
<path d="M378.78 66.9999C382.3 63.8599 376.29 54.6899 362.22 50.9199C348.15 47.1499 338.57 52.8199 339.66 56.3199C338.951 56.5848 338.328 57.039 337.859 57.6332C337.39 58.2273 337.093 58.9387 337 59.6899C336.68 62.3199 340.94 69.5799 356.19 73.3599C370.7 76.9599 377.19 71.0399 378.34 69.4499C378.584 69.0968 378.75 68.6954 378.826 68.2727C378.902 67.85 378.886 67.416 378.78 66.9999Z" fill="#BE9081"/>
<path opacity="0.3" d="M378.78 66.9999C375.26 67.8499 371.78 66.8499 368.56 65.7999C366.969 65.2321 365.416 64.5641 363.91 63.7999C359.38 61.4499 355.54 58.2199 350.45 56.4799C346.983 55.1747 343.173 55.1041 339.66 56.2799C343.103 55.7523 346.626 56.2352 349.8 57.6699C354.48 59.6699 358.33 62.9899 362.98 65.1899C364.598 65.9174 366.27 66.5192 367.98 66.9899C371.36 67.8399 375.38 68.5099 378.75 66.9899L378.78 66.9999Z" fill="#4E3028"/>
<path opacity="0.7" d="M377.55 61.38C376.811 60.0036 375.848 58.76 374.7 57.7C372.002 55.198 368.815 53.2811 365.34 52.07L363.34 51.42L360.79 50.78C360.04 50.64 358.95 50.46 358.19 50.33C357.13 50.21 356.07 50.11 355.01 50.03H352.87C351.46 50.03 350.03 50.15 348.61 50.27C350.61 50.48 352.82 50.69 354.82 50.98C358.145 51.4802 361.416 52.2904 364.59 53.4C369.456 55.0401 373.88 57.7773 377.52 61.4L377.55 61.38Z" fill="white"/>
<path opacity="0.7" d="M376.71 67.9999C370.802 68.6309 364.866 67.0998 360 63.6899C355.26 60.6899 350 56.7399 343.69 56.7699C346.577 57.3426 349.33 58.4591 351.8 60.0599C354.26 61.5399 356.57 63.2099 359.02 64.7999C360.58 65.8737 362.258 66.7662 364.02 67.4599C368.118 68.9309 372.565 69.133 376.78 68.0399L376.71 67.9999Z" fill="white"/>
<path d="M260.71 301.84C265.26 303.84 277.16 306.04 288.21 294.04C297.64 283.82 292.21 271.99 288.93 270.04L260.71 301.84Z" fill="#EBEBEB"/>
<path d="M260.71 301.84C265.26 303.84 277.16 306.04 288.21 294.04C297.64 283.82 292.21 271.99 288.93 270.04L260.71 301.84Z" fill="#6F4439"/>
<path d="M259 300C254.33 299.34 254.23 288.37 263.84 277.43C273.45 266.49 284.56 265.88 285.6 269.43C286.341 269.254 287.116 269.285 287.841 269.52C288.566 269.754 289.212 270.183 289.71 270.76C291.44 272.76 291.93 281.17 281.34 292.76C271.28 303.76 262.56 302.51 260.75 301.76C260.348 301.612 259.982 301.378 259.68 301.074C259.378 300.77 259.146 300.403 259 300Z" fill="#BE9081"/>
<path opacity="0.3" d="M259 300C262.4 298.75 264.75 296 266.83 293.32C267.844 291.979 268.772 290.577 269.61 289.12C272.07 284.65 273.48 279.82 276.74 275.55C278.895 272.537 282.025 270.361 285.6 269.39C282.443 270.864 279.782 273.223 277.94 276.18C275.16 280.44 273.8 285.34 271.15 289.75C270.206 291.262 269.142 292.697 267.97 294.04C265.63 296.63 262.66 299.42 258.97 300.04L259 300Z" fill="#4E3028"/>
<path opacity="0.7" d="M256.87 294.7C256.722 293.142 256.834 291.571 257.2 290.05C258.05 286.471 259.637 283.11 261.86 280.18L263.14 278.54C263.71 277.89 264.31 277.24 264.9 276.6C265.49 275.96 266.25 275.3 266.82 274.77C267.62 274.09 268.46 273.42 269.29 272.77L271.04 271.55C272.228 270.763 273.457 270.039 274.72 269.38C273.17 270.67 271.45 272.06 269.95 273.38C267.463 275.643 265.193 278.134 263.17 280.82C260.039 284.894 257.884 289.632 256.87 294.67V294.7Z" fill="white"/>
<path opacity="0.7" d="M261.27 299.77C266.55 296.999 270.644 292.404 272.79 286.84C275.06 281.71 277.23 275.52 282.52 272.03C280.43 274.107 278.757 276.565 277.59 279.27C276.37 281.87 275.38 284.54 274.23 287.27C273.532 289.033 272.637 290.71 271.56 292.27C268.969 295.77 265.383 298.408 261.27 299.84V299.77Z" fill="white"/>
<path d="M394.27 149.85C398.27 154.67 410.01 163.64 427.03 154.67C441.54 147.02 440.89 129.6 438.23 125.54L394.27 149.85Z" fill="#EBEBEB"/>
<path d="M394.27 149.85C398.27 154.67 410.01 163.64 427.03 154.67C441.54 147.02 440.89 129.6 438.23 125.54L394.27 149.85Z" fill="#6F4439"/>
<path d="M393.19 146.71C388.48 143.46 391.4 131.1 406.43 122.66C421.46 114.22 435.34 118.11 434.91 122.98C435.842 123.182 436.696 123.646 437.373 124.317C438.05 124.989 438.521 125.84 438.73 126.77C439.73 130.16 436.56 140.77 420.2 149.5C404.64 157.83 395.9 151.67 394.27 149.85C393.512 148.986 393.124 147.858 393.19 146.71Z" fill="#BE9081"/>
<path opacity="0.3" d="M393.19 146.71C397.36 146.96 401.08 144.78 404.45 142.6C406.13 141.467 407.734 140.225 409.25 138.88C413.83 134.67 417.43 129.47 422.77 125.88C426.25 123.49 430.77 122.1 434.91 122.95C430.824 123.134 426.912 124.659 423.78 127.29C418.95 131.07 415.37 136.39 410.62 140.44C408.972 141.79 407.212 142.997 405.36 144.05C401.73 146.05 397.36 147.89 393.19 146.68V146.71Z" fill="#4E3028"/>
<path opacity="0.7" d="M392.18 141.13C392.613 139.167 393.345 137.281 394.35 135.54C396.533 131.653 399.507 128.266 403.08 125.6L405.08 124.2C405.94 123.68 406.82 123.2 407.69 122.66C408.56 122.12 409.61 121.72 410.4 121.34C411.52 120.89 412.65 120.46 413.78 120.06L416.09 119.41C417.637 119.019 419.207 118.722 420.79 118.52C418.66 119.36 416.32 120.24 414.22 121.18C410.693 122.794 407.342 124.768 404.22 127.07C399.195 130.774 395.089 135.585 392.22 141.13H392.18Z" fill="white"/>
<path opacity="0.7" d="M395.76 147.59C399.254 147.217 402.639 146.153 405.718 144.458C408.796 142.764 411.506 140.473 413.69 137.72C418.35 132.59 423.37 126.11 430.53 124.58C427.33 126.104 424.47 128.257 422.12 130.91C419.69 133.47 417.46 136.24 415.07 138.91C413.592 140.675 411.915 142.263 410.07 143.64C405.903 146.56 400.853 147.945 395.78 147.56L395.76 147.59Z" fill="white"/>
<path d="M193.3 79.9999C188.58 84.1099 175.53 90.9999 160.19 79.4199C147.12 69.4999 150.6 52.4199 153.89 48.8499L193.3 79.9999Z" fill="#EBEBEB"/>
<path d="M193.3 79.9999C188.58 84.1099 175.53 90.9999 160.19 79.4199C147.12 69.4999 150.6 52.4199 153.89 48.8499L193.3 79.9999Z" fill="#6F4439"/>
<path d="M194.88 77.09C200.05 74.65 199.18 61.98 185.73 51.2C172.28 40.42 158 42 157.58 46.87C156.627 46.9195 155.709 47.2406 154.933 47.7952C154.157 48.3498 153.555 49.1148 153.2 50C151.69 53.19 153.06 64.15 167.77 75.45C181.77 86.2 191.4 81.55 193.3 80.02C194.193 79.29 194.761 78.2368 194.88 77.09Z" fill="#BE9081"/>
<path opacity="0.3" d="M194.88 77.0899C190.72 76.6499 187.41 73.8899 184.44 71.1999C182.965 69.8043 181.582 68.3145 180.3 66.7399C176.48 61.8399 173.77 56.1199 169.08 51.7399C166.03 48.8099 161.85 46.7399 157.58 46.8599C161.585 47.7224 165.194 49.8803 167.85 52.9999C172 57.5199 174.67 63.3499 178.7 68.1199C180.103 69.7232 181.642 71.202 183.3 72.5399C186.56 75.0599 190.58 77.6299 194.88 77.1199V77.0899Z" fill="#4E3028"/>
<path opacity="0.7" d="M196.78 71.74C196.674 69.736 196.263 67.7598 195.56 65.88C194.035 61.6899 191.65 57.8648 188.56 54.6501L186.83 53C186.07 52.34 185.29 51.69 184.51 51C183.73 50.31 182.77 49.76 182.05 49.25C181.05 48.63 179.97 48.02 178.92 47.44L176.75 46.44C175.287 45.8048 173.788 45.2571 172.26 44.8C174.26 45.97 176.39 47.23 178.31 48.5C181.533 50.6607 184.519 53.1544 187.22 55.94C191.581 60.408 194.852 65.8217 196.78 71.7601V71.74Z" fill="white"/>
<path opacity="0.7" d="M192.19 77.5399C188.803 76.5999 185.638 74.9956 182.877 72.8204C180.117 70.6452 177.816 67.9426 176.11 64.8699C172.35 59.0599 168.46 51.8699 161.64 49.1699C164.558 51.1874 167.032 53.7806 168.91 56.7899C170.91 59.7099 172.63 62.7899 174.56 65.8599C175.733 67.8445 177.136 69.6838 178.74 71.3399C182.372 74.8989 187.125 77.0898 192.19 77.5399Z" fill="white"/>
<path d="M428.82 232C424.7 235.54 413.34 241.48 400.1 231.32C388.81 222.65 391.92 207.85 394.79 204.76L428.82 232Z" fill="#EBEBEB"/>
<path d="M428.82 232C424.7 235.54 413.34 241.48 400.1 231.32C388.81 222.65 391.92 207.85 394.79 204.76L428.82 232Z" fill="#6F4439"/>
<path d="M430.2 229.52C434.7 227.42 434.02 216.43 422.41 207.01C410.8 197.59 398.36 198.88 398.01 203.1C397.185 203.14 396.388 203.413 395.712 203.887C395.036 204.362 394.508 205.018 394.19 205.78C392.86 208.54 393.99 218.05 406.69 227.94C418.78 237.34 427.16 233.35 428.82 232.04C429.592 231.413 430.088 230.508 430.2 229.52Z" fill="#BE9081"/>
<path opacity="0.3" d="M430.2 229.52C426.6 229.11 423.74 226.7 421.2 224.35C419.936 223.126 418.747 221.827 417.64 220.46C414.35 216.19 412.03 211.21 407.99 207.39C406.689 206.053 405.136 204.986 403.422 204.25C401.708 203.514 399.865 203.123 398 203.1C401.466 203.857 404.584 205.738 406.87 208.45C410.45 212.39 412.74 217.45 416.2 221.62C417.419 223.02 418.758 224.311 420.2 225.48C423.02 227.69 426.49 229.94 430.2 229.48V229.52Z" fill="#4E3028"/>
<path opacity="0.7" d="M431.88 224.89C431.807 223.149 431.47 221.429 430.88 219.79C429.582 216.148 427.538 212.817 424.88 210.01L423.39 208.53C422.73 207.95 422.06 207.38 421.39 206.82C420.72 206.26 419.88 205.74 419.26 205.3C418.367 204.747 417.467 204.217 416.56 203.71L414.68 202.81C413.413 202.251 412.114 201.767 410.79 201.36C412.49 202.36 414.36 203.49 416.02 204.6C418.803 206.497 421.38 208.678 423.71 211.11C427.468 215.013 430.277 219.728 431.92 224.89H431.88Z" fill="white"/>
<path opacity="0.7" d="M427.87 229.89C424.94 229.055 422.205 227.647 419.824 225.746C417.443 223.846 415.464 221.492 414 218.82C410.76 213.75 407.43 207.47 401.53 205.11C404.043 206.882 406.173 209.144 407.79 211.76C409.5 214.31 410.99 217 412.64 219.66C413.652 221.387 414.86 222.991 416.24 224.44C419.373 227.548 423.486 229.474 427.88 229.89H427.87Z" fill="white"/>
<path opacity="0.3" d="M327.37 311.68C327.37 311.68 253.93 277.84 253.93 232.49C253.93 187.14 349.17 157.95 349.17 122.49C349.17 87.0299 307.64 66.1899 307.64 66.1899C307.64 66.1899 373.24 88.6099 373.24 133.44C373.24 178.27 310.45 208.65 304.45 237.17C296.11 276.8 327.37 311.68 327.37 311.68Z" fill="#BE9B87"/>
<path opacity="0.3" d="M323.74 311.68C323.74 311.68 397.18 285.08 397.18 249.42C397.18 213.76 301.93 190.81 301.93 162.94C301.93 135.07 343.47 118.67 343.47 118.67C343.47 118.67 277.86 136.3 277.86 171.55C277.86 206.8 350 231 355.12 259.67C360.18 287.75 323.74 311.68 323.74 311.68Z" fill="#BE9B87"/>
<path d="M222.5 454.08H82.95V463.98H222.5V454.08Z" fill="#AE836B"/>
<path opacity="0.8" d="M222.5 454.08H82.95V463.98H222.5V454.08Z" fill="#BE9B87"/>
<path opacity="0.2" d="M222.5 454.08V456.55L82.95 459.03V454.08H222.5Z" fill="#AE836B"/>
<path d="M256.21 134.77L229.06 454.08H76.38L49.23 134.77H256.21Z" fill="#AE836B"/>
<path opacity="0.8" d="M256.21 134.77L229.06 454.08H76.38L49.23 134.77H256.21Z" fill="#BE9B87"/>
<path opacity="0.2" d="M52.54 173.73L51.84 165.46H253.6L229.06 454.08L197.68 453.82L212.19 187.27L52.54 173.73Z" fill="#AE836B"/>
<path d="M239.12 370.93H66.33L55.49 249.44H249.96L239.12 370.93Z" fill="#AE836B"/>
<path opacity="0.5" d="M239.12 370.93H66.33L55.49 249.44H249.96L239.12 370.93Z" fill="black"/>
<path opacity="0.4" d="M239.12 370.93H66.33L55.49 249.44H249.96L239.12 370.93Z" fill="#A36262"/>
<path d="M246.51 288L242.4 334H194.85C190.719 341.566 184.627 347.88 177.214 352.279C169.801 356.677 161.34 358.999 152.72 358.999C144.1 358.999 135.639 356.677 128.226 352.279C120.813 347.88 114.721 341.566 110.59 334H63L58.93 288H110.59C114.721 280.434 120.813 274.12 128.226 269.722C135.639 265.323 144.1 263.001 152.72 263.001C161.34 263.001 169.801 265.323 177.214 269.722C184.627 274.12 190.719 280.434 194.85 288H246.51Z" fill="#AE836B"/>
<g opacity="0.5">
<path d="M246.51 288L242.4 334H194.85C190.719 341.566 184.627 347.88 177.214 352.279C169.801 356.677 161.34 358.999 152.72 358.999C144.1 358.999 135.639 356.677 128.226 352.279C120.813 347.88 114.721 341.566 110.59 334H63L58.93 288H110.59C114.721 280.434 120.813 274.12 128.226 269.722C135.639 265.323 144.1 263.001 152.72 263.001C161.34 263.001 169.801 265.323 177.214 269.722C184.627 274.12 190.719 280.434 194.85 288H246.51Z" fill="#BE9B87"/>
</g>
<path d="M157.19 347.31C157.19 347.31 160.36 341.91 158.78 332.87C157.2 323.83 150.14 313.58 152.01 296.94C153.88 280.3 161.51 276.05 161.51 276.05C161.51 276.05 182.24 280.95 182.24 311.68C182.24 342.41 162.67 347.31 157.19 347.31Z" fill="#AE836B"/>
<path d="M149 347.31C149 347.31 153.39 341.31 151.14 331.52C148.68 320.82 142.4 309.39 145.4 293.97C147.89 281.18 152.75 274.67 152.75 274.67C152.75 274.67 122.25 274.33 123.23 310.99C124.23 348.51 149 347.31 149 347.31Z" fill="#AE836B"/>
<g opacity="0.6">
<path d="M157.19 347.31C157.19 347.31 160.36 341.91 158.78 332.87C157.2 323.83 150.14 313.58 152.01 296.94C153.88 280.3 161.51 276.05 161.51 276.05C161.51 276.05 182.24 280.95 182.24 311.68C182.24 342.41 162.67 347.31 157.19 347.31Z" fill="black"/>
<path d="M149 347.31C149 347.31 153.39 341.31 151.14 331.52C148.68 320.82 142.4 309.39 145.4 293.97C147.89 281.18 152.75 274.67 152.75 274.67C152.75 274.67 122.25 274.33 123.23 310.99C124.23 348.51 149 347.31 149 347.31Z" fill="black"/>
</g>
<path opacity="0.1" d="M74.91 370.93L64.86 249.44H73.97L83.98 370.93H74.91Z" fill="#CFAF9C"/>
<path opacity="0.1" d="M249.96 249.44H208.69L202.22 370.93H239.12" fill="black"/>
<path d="M271.8 165.46H33.64L40.15 128.78H265.29L271.8 165.46Z" fill="#AE836B"/>
<path opacity="0.7" d="M271.8 165.46H33.64L40.15 128.78H265.29L271.8 165.46Z" fill="black"/>
<path opacity="0.1" d="M33.64 165.46L259.85 152.5L265.29 128.78L271.8 165.46H33.64Z" fill="black"/>
<path opacity="0.2" d="M33.64 165.46L46.32 134.77L163.37 128.78H40.15L33.64 165.46Z" fill="#BE9B87"/>
<path d="M256.21 128.78H49.23L58.36 79.75H247.08L256.21 128.78Z" fill="#AE836B"/>
<path opacity="0.7" d="M256.21 128.78H49.23L58.36 79.75H247.08L256.21 128.78Z" fill="black"/>
<path opacity="0.1" d="M90.84 128.78L243.53 111.31L247.08 79.75L256.21 128.78H90.84Z" fill="black"/>
<path opacity="0.2" d="M49.23 128.78L64.05 88.86L156.78 79.75H58.36L49.23 128.78Z" fill="#BE9B87"/>
<path d="M360.48 439.98H290.62V446.84H360.48V439.98Z" fill="#D8B29D"/>
<path opacity="0.1" d="M290.62 439.98V442.64L360.48 444.51V439.98H290.62Z" fill="black"/>
<path d="M438.3 407.16C433.32 412.333 426.985 415.999 420.019 417.739C413.053 419.479 405.737 419.223 398.91 417C396.651 416.254 394.463 415.31 392.37 414.18C389.218 412.473 386.255 410.438 383.53 408.11L393.46 397.41C394.91 398.689 396.473 399.833 398.13 400.83C413.13 409.95 424.66 399.51 426.97 397.08C437.6 386.21 444.29 358.82 436.35 346.77C435.84 345.89 433.35 344.25 422.35 344.87C420.35 345.01 418.01 345.16 415.35 345.46C413.287 345.812 411.19 345.933 409.1 345.82L409.71 338.63L409.85 331.38C410.55 331.38 411.67 331.22 413.13 331.04C418.275 330.378 423.464 330.11 428.65 330.24C436.65 330.6 444.81 332.69 449.16 339.35C462.06 359 451.62 393.52 438.3 407.16Z" fill="#D8B29D"/>
<g opacity="0.1">
<path d="M438.3 407.16C433.32 412.333 426.985 415.999 420.019 417.739C413.053 419.479 405.737 419.223 398.91 417C396.651 416.254 394.463 415.31 392.37 414.18C389.218 412.473 386.255 410.438 383.53 408.11L393.46 397.41C394.91 398.689 396.473 399.833 398.13 400.83C413.13 409.95 424.66 399.51 426.97 397.08C437.6 386.21 444.29 358.82 436.35 346.77C435.84 345.89 433.35 344.25 422.35 344.87C420.35 345.01 418.01 345.16 415.35 345.46C413.287 345.812 411.19 345.933 409.1 345.82L409.71 338.63L409.85 331.38C410.55 331.38 411.67 331.22 413.13 331.04C418.275 330.378 423.464 330.11 428.65 330.24C436.65 330.6 444.81 332.69 449.16 339.35C462.06 359 451.62 393.52 438.3 407.16Z" fill="black"/>
</g>
<path d="M232.61 308.68C232.61 308.68 238.29 354.17 247.39 386.14C254.45 410.93 265.75 435.14 290.34 440.21C299.34 442.07 311.92 441.57 325.55 441.57C339.18 441.57 351.73 442.07 360.76 440.21C385.35 435.15 396.66 410.93 403.76 386.14C412.87 354.14 418.54 308.68 418.54 308.68H232.61Z" fill="#D8B29D"/>
<path opacity="0.3" d="M303.69 441.53C299.214 441.467 294.751 441.026 290.35 440.21C265.76 435.15 254.46 410.93 247.35 386.14C238.24 354.14 232.56 308.68 232.56 308.68H253.77C255.05 330.58 262.8 429.42 303.69 441.53Z" fill="white"/>
<path opacity="0.1" d="M339.82 439.91C335.5 440.78 325.55 441.57 325.55 441.57C339.18 441.57 351.72 442.07 360.76 440.21C385.35 435.15 396.66 410.63 403.76 385.84C412.86 353.84 418.54 308.68 418.54 308.68H339.8C339.8 308.68 383.75 317.62 387.69 333C394 357.69 371.5 433.48 339.82 439.91Z" fill="#734024"/>
<path d="M405.3 458.65H245.81L214.16 442.25H436.95L405.3 458.65Z" fill="#D8B29D"/>
<path d="M405.27 458.65H245.72V463.92H405.27V458.65Z" fill="#D8B29D"/>
<path opacity="0.1" d="M245.72 458.65V460.69L405.27 462.12V458.65H245.72Z" fill="black"/>
<path d="M289.11 433.56C286.59 437.48 278.44 445.43 263.53 441.82C250.83 438.75 248.9 426.66 250.46 423.46L289.11 433.56Z" fill="#AE836B"/>
<path opacity="0.8" d="M289.11 433.56C286.59 437.48 278.44 445.43 263.53 441.82C250.83 438.75 248.9 426.66 250.46 423.46L289.11 433.56Z" fill="#4E3028"/>
<path d="M289.53 431.24C292.85 428.24 287.19 419.66 273.97 416.11C260.75 412.56 251.74 417.91 252.76 421.19C252.087 421.439 251.496 421.868 251.051 422.431C250.607 422.993 250.326 423.668 250.24 424.38C249.94 426.86 253.94 433.67 268.24 437.23C281.88 440.61 288.02 435.05 289.07 433.56C289.316 433.233 289.486 432.854 289.565 432.453C289.645 432.051 289.633 431.636 289.53 431.24Z" fill="#AE836B"/>
<g opacity="0.7">
<path d="M289.53 431.24C292.85 428.24 287.19 419.66 273.97 416.11C260.75 412.56 251.74 417.91 252.76 421.19C252.087 421.439 251.496 421.868 251.051 422.431C250.607 422.993 250.326 423.668 250.24 424.38C249.94 426.86 253.94 433.67 268.24 437.23C281.88 440.61 288.02 435.05 289.07 433.56C289.316 433.233 289.486 432.854 289.565 432.453C289.645 432.051 289.633 431.636 289.53 431.24Z" fill="#6F4439"/>
</g>
<path opacity="0.3" d="M289.53 431.24C286.22 432.03 282.94 431.09 279.93 430.1C278.436 429.582 276.977 428.971 275.56 428.27C271.3 426.06 267.68 423.02 262.91 421.38C259.649 420.153 256.065 420.086 252.76 421.19C255.996 420.695 259.307 421.15 262.29 422.5C266.69 424.38 270.29 427.5 274.69 429.57C276.216 430.258 277.794 430.823 279.41 431.26C282.59 432.06 286.41 432.69 289.53 431.26V431.24Z" fill="#614035"/>
<path opacity="0.1" d="M288.38 426C287.689 424.703 286.782 423.533 285.7 422.54C283.165 420.185 280.168 418.384 276.9 417.25L275.05 416.64C274.26 416.43 273.45 416.23 272.65 416.04C271.85 415.85 270.92 415.73 270.2 415.61C269.2 415.5 268.2 415.41 267.2 415.33H265.2C263.87 415.33 262.52 415.44 261.2 415.55C263.09 415.75 265.2 415.95 267.04 416.22C270.167 416.696 273.243 417.459 276.23 418.5C280.8 420.039 284.956 422.604 288.38 426Z" fill="#AE836B"/>
<path d="M287.59 432.23C282.017 432.831 276.416 431.377 271.84 428.14C267.38 425.31 262.45 421.6 256.5 421.63C259.216 422.169 261.804 423.218 264.13 424.72C266.44 426.12 268.61 427.72 270.91 429.19C272.371 430.194 273.941 431.029 275.59 431.68C279.444 433.066 283.626 433.258 287.59 432.23Z" fill="#AE836B"/>
<path d="M276.81 435.41C280.07 439.35 289.65 446.66 303.53 439.34C315.37 433.1 314.84 418.9 312.67 415.58L276.81 435.41Z" fill="#AE836B"/>
<path opacity="0.8" d="M276.81 435.41C280.07 439.35 289.65 446.66 303.53 439.34C315.37 433.1 314.84 418.9 312.67 415.58L276.81 435.41Z" fill="#4E3028"/>
<path d="M275.93 432.85C272.09 430.2 274.47 420.12 286.73 413.23C298.99 406.34 310.31 409.52 309.96 413.49C310.718 413.658 311.412 414.037 311.963 414.584C312.513 415.131 312.897 415.823 313.07 416.58C313.87 419.35 311.31 427.98 297.96 435.12C285.27 441.92 278.14 436.89 276.81 435.41C276.19 434.706 275.874 433.786 275.93 432.85Z" fill="#AE836B"/>
<g opacity="0.7">
<path d="M275.93 432.85C272.09 430.2 274.47 420.12 286.73 413.23C298.99 406.34 310.31 409.52 309.96 413.49C310.718 413.658 311.412 414.037 311.963 414.584C312.513 415.131 312.897 415.823 313.07 416.58C313.87 419.35 311.31 427.98 297.96 435.12C285.27 441.92 278.14 436.89 276.81 435.41C276.19 434.706 275.874 433.786 275.93 432.85Z" fill="#6F4439"/>
</g>
<path opacity="0.3" d="M275.93 432.85C279.33 433.05 282.36 431.27 285.12 429.5C286.486 428.584 287.792 427.582 289.03 426.5C292.76 423.07 295.7 418.82 300.03 415.93C302.881 413.849 306.442 412.985 309.93 413.53C306.6 413.681 303.412 414.925 300.86 417.07C296.91 420.16 293.99 424.5 290.12 427.8C288.776 428.9 287.341 429.884 285.83 430.74C282.83 432.34 279.29 433.88 275.9 432.89L275.93 432.85Z" fill="#614035"/>
<path opacity="0.1" d="M275.11 428.3C275.46 426.699 276.053 425.161 276.87 423.74C278.656 420.57 281.085 417.807 284 415.63L285.62 414.49C286.31 414.07 287.03 413.64 287.74 413.23C288.45 412.82 289.31 412.47 289.96 412.16C290.87 411.79 291.79 411.44 292.71 411.11L294.6 410.58C295.861 410.262 297.14 410.018 298.43 409.85C296.69 410.54 294.78 411.26 293.07 412.03C290.187 413.341 287.449 414.95 284.9 416.83C280.8 419.852 277.451 423.776 275.11 428.3Z" fill="#AE836B"/>
<path d="M278 433.57C280.85 433.264 283.61 432.394 286.121 431.01C288.631 429.626 290.84 427.757 292.62 425.51C296.43 421.34 300.52 416.04 306.36 414.8C303.747 416.037 301.413 417.792 299.5 419.96C297.5 422.05 295.7 424.31 293.75 426.51C292.538 427.951 291.162 429.247 289.65 430.37C286.253 432.751 282.137 433.882 278 433.57Z" fill="#AE836B"/>
<path d="M424 433.35C421.28 437.67 412.72 446.16 398 440.68C385.45 436.02 384.16 421.86 385.88 418.29L424 433.35Z" fill="#AE836B"/>
<path opacity="0.8" d="M424 433.35C421.28 437.67 412.72 446.16 398 440.68C385.45 436.02 384.16 421.86 385.88 418.29L424 433.35Z" fill="#4E3028"/>
<path d="M424.57 430.7C428.03 427.58 424.37 417.89 411.33 412.63C398.29 407.37 387.47 411.98 388.33 415.87C387.6 416.136 386.96 416.603 386.484 417.217C386.008 417.831 385.716 418.567 385.64 419.34C385.21 422.18 388.86 430.42 403.01 435.79C416.47 440.89 422.9 434.99 424.01 433.35C424.538 432.574 424.739 431.622 424.57 430.7Z" fill="#AE836B"/>
<g opacity="0.7">
<path d="M424.57 430.7C428.03 427.58 424.37 417.89 411.33 412.63C398.29 407.37 387.47 411.98 388.33 415.87C387.6 416.136 386.96 416.603 386.484 417.217C386.008 417.831 385.716 418.567 385.64 419.34C385.21 422.18 388.86 430.42 403.01 435.79C416.47 440.89 422.9 434.99 424.01 433.35C424.538 432.574 424.739 431.622 424.57 430.7Z" fill="#6F4439"/>
</g>
<path opacity="0.3" d="M424.57 430.7C421.22 431.34 417.98 429.96 415.03 428.55C413.55 427.811 412.121 426.976 410.75 426.05C406.61 423.12 403.15 419.29 398.46 416.98C395.364 415.283 391.72 414.884 388.33 415.87C391.656 415.595 394.98 416.421 397.79 418.22C402.09 420.77 405.55 424.7 409.79 427.48C411.262 428.402 412.811 429.195 414.42 429.85C417.57 431.05 421.31 432.11 424.55 430.7H424.57Z" fill="#614035"/>
<path opacity="0.1" d="M424.8 426.08C424.238 424.541 423.45 423.095 422.46 421.79C420.287 418.871 417.524 416.441 414.35 414.66L412.6 413.74C411.85 413.4 411.09 413.08 410.33 412.74C409.57 412.4 408.68 412.19 408 411.96C407.05 411.71 406.09 411.49 405.13 411.28L403.19 410.99C401.899 410.839 400.6 410.762 399.3 410.76C401.11 411.22 403.1 411.69 404.89 412.23C407.919 413.162 410.841 414.409 413.61 415.95C418.067 418.416 421.895 421.876 424.8 426.06V426.08Z" fill="#AE836B"/>
<path d="M422.58 431.68C419.707 431.749 416.849 431.244 414.174 430.195C411.499 429.146 409.06 427.574 407 425.57C402.69 421.92 397.95 417.19 392 416.71C394.75 417.607 397.29 419.049 399.47 420.95C401.7 422.77 403.79 424.78 406.01 426.71C407.396 427.981 408.927 429.085 410.57 430C414.254 431.936 418.496 432.529 422.57 431.68H422.58Z" fill="#AE836B"/>
<path d="M51.68 464C178.74 463.39 321.26 463.39 448.32 464C321.26 464.62 178.74 464.62 51.68 464Z" fill="#263238"/>
</svg>
