<svg width="136" height="104" viewBox="0 0 136 104" fill="none" xmlns="http://www.w3.org/2000/svg">
<path d="M85.8983 36.2061C93.7781 52.9076 83.9965 75.2552 64.2147 84.5884C44.4329 93.9216 22.5144 86.7719 14.6346 70.0705C6.75484 53.369 18.9289 39.2474 38.7106 29.9141C55.1957 22.1402 70.4098 19.2233 79.9197 28.7224C81.8186 30.6171 84.5881 33.4246 85.8983 36.2061Z" fill="#6F4439"/>
<path d="M83.1076 32.8789C77.6227 21.2442 57.6659 19.1244 38.533 28.1443C19.4 37.1641 8.33598 53.9078 13.8209 65.5425C19.3058 77.1771 39.2625 79.2969 58.3955 70.2771C77.5285 61.2573 88.5925 44.5135 83.1076 32.8789Z" fill="#AE7461"/>
<path d="M82.5535 31.6341C82.4551 31.8791 82.0757 32.024 81.4925 32.0808C81.2077 32.111 80.8716 32.1136 80.4771 32.116C80.0827 32.1184 79.6367 32.1516 79.1428 32.1435C76.4404 32.1669 73.7513 32.5236 71.1363 33.2057C67.3313 34.1806 63.7255 35.8117 60.481 38.0256C58.6467 39.3026 56.9891 40.8162 55.5511 42.5271C53.9705 44.3668 52.413 46.5186 50.6562 48.8243C49.777 49.966 48.8634 51.1282 47.8848 52.2594C47.3929 52.8207 46.8908 53.3648 46.3663 53.9105L44.8035 55.4484C42.7709 57.3337 40.5742 59.0339 38.2396 60.5289C36.141 61.9099 33.9164 63.089 31.5955 64.0503C30.519 64.5296 29.4188 64.8715 28.3872 65.2308C27.3556 65.5901 26.3208 65.8465 25.3497 65.995C22.2313 66.7127 18.9971 66.77 15.8551 66.1633C15.0003 66.0034 14.1761 65.709 13.4134 65.2911C12.8791 64.9811 12.6243 64.6906 12.6679 64.4318C12.8492 63.2523 17.421 63.4009 23.7646 60.7225C32.0439 57.1303 39.1995 51.3687 44.4754 44.0463C46.1786 41.8657 47.8926 39.5273 49.86 37.3404C51.8277 35.1844 54.1133 33.3418 56.6376 31.8763C58.8687 30.5718 61.2496 29.5423 63.7282 28.8105C65.8626 28.1714 68.0636 27.7804 70.2876 27.6452C73.5231 27.3456 76.7829 27.8388 79.785 29.0822C80.3057 29.3304 80.7493 29.5665 81.1295 29.7938C81.4475 30.0046 81.746 30.2435 82.0212 30.5078C82.5059 30.9949 82.6833 31.3704 82.5535 31.6341Z" fill="#6F4439"/>
<path opacity="0.3" d="M82.6189 31.5487C82.3723 31.428 82.3959 31.5653 82.0944 31.4308C79.108 30.2964 75.898 29.8749 72.7199 30.1999C70.5275 30.3605 68.3599 30.767 66.2582 31.4117C63.8184 32.1333 61.4728 33.1418 59.2707 34.4161C56.806 35.8725 54.5739 37.6908 52.6494 39.8103C50.6855 41.9251 48.9648 44.2326 47.2854 46.4339C41.9487 53.8578 34.6493 59.6481 26.2058 63.1555C21.2016 65.1512 17.3337 65.4211 15.7547 65.8974L16.2792 66.0153C19.3928 66.523 22.5764 66.405 25.6439 65.6683C26.6305 65.4872 27.6054 65.1501 28.6557 64.8612C29.706 64.5723 30.7549 64.1444 31.8177 63.6617C34.1016 62.6924 36.2898 61.5116 38.3538 60.1349C40.6472 58.6338 42.8061 56.9367 44.8063 55.0627L46.3433 53.5402C46.8643 53.0081 47.3527 52.4605 47.8446 51.8993C48.8112 50.7869 49.7025 49.6264 50.5868 48.4933C52.3401 46.2013 53.9096 44.0306 55.5298 42.1791C57.0066 40.4271 58.7141 38.8835 60.6056 37.5904C62.3623 36.4092 64.2291 35.4007 66.18 34.5791C67.8986 33.8374 69.6798 33.2501 71.5026 32.8243C74.1609 32.171 76.8959 31.883 79.6321 31.9682C80.1225 31.99 80.5343 31.9191 80.9287 31.9166C81.3232 31.9142 81.6747 31.9373 81.9611 31.9295C82.4327 31.9392 82.4728 31.6941 82.6189 31.5487Z" fill="black"/>
<g opacity="0.2">
<path d="M60.4871 26.657C60.1702 26.4054 59.7743 26.2744 59.3698 26.2872C48.8018 25.5388 38.3294 28.7182 29.9612 35.2156C23.0757 40.616 16.5642 48.0291 14.7449 56.1244C14.1036 58.8359 16.289 60.6645 18.9611 59.932C24.458 58.4108 32.3095 55.5664 36.5921 51.3463C41.3544 46.6419 43.9826 40.1367 48.6679 35.3619C51.485 32.5044 54.9374 30.3529 58.7437 29.0828C59.3307 28.9443 59.8771 28.6702 60.339 28.2824C60.5601 28.0776 60.6975 27.7982 60.7249 27.4981C60.7522 27.198 60.6675 26.8984 60.4871 26.657Z" fill="white"/>
</g>
<g opacity="0.2">
<path d="M32.3154 70.3514C32.6484 70.6141 33.0637 70.75 33.4875 70.735C44.5247 71.5449 55.4724 68.2519 64.2313 61.4875C71.4329 55.8752 78.2573 48.1474 80.1803 39.699C80.8015 36.8365 78.6317 34.9172 75.7794 35.6989C70.0354 37.2744 61.8286 40.2259 57.3398 44.6274C52.3626 49.5181 49.5948 56.3162 44.6861 61.2826C41.7374 64.2615 38.1276 66.5028 34.1499 67.8246C33.5348 67.9642 32.9624 68.2499 32.4809 68.6574C32.2465 68.8679 32.0995 69.1586 32.0689 69.4722C32.0383 69.7858 32.1262 70.0994 32.3154 70.3514Z" fill="white"/>
</g>
<path d="M132.344 34.9449C131.714 53.4011 112.796 68.8023 90.9358 68.0567C69.0756 67.311 52.8524 50.9296 53.4821 32.4734C54.1117 14.0171 71.396 7.02545 93.2562 7.7711C111.472 8.3959 126.336 12.759 130.449 25.5555C131.272 28.1088 132.451 31.8721 132.344 34.9449Z" fill="#6F4439"/>
<path d="M131.384 30.7097C131.826 17.8546 115.048 6.84359 93.9076 6.11587C72.7676 5.38815 55.2715 15.2193 54.829 28.0744C54.3865 40.9295 71.1651 51.9406 92.305 52.6683C113.445 53.396 130.941 43.5648 131.384 30.7097Z" fill="#AE7461"/>
<path d="M131.46 29.3494C131.261 29.5223 130.857 29.4776 130.312 29.2615C130.045 29.1581 129.745 29.0067 129.393 28.8285C129.041 28.6503 128.629 28.4758 128.194 28.2428C125.78 27.0278 123.225 26.1153 120.588 25.5261C116.758 24.6532 112.806 24.4548 108.908 24.9401C106.693 25.2369 104.526 25.825 102.465 26.689C100.218 27.6022 97.849 28.8037 95.2324 30.0509C93.9284 30.6642 92.5845 31.28 91.1969 31.8384C90.5027 32.1126 89.8074 32.3669 89.0914 32.6124L86.9984 33.2655C84.3286 34.0126 81.5976 34.5202 78.8376 34.7821C76.3399 35.0506 73.8223 35.0819 71.3186 34.8755C70.1421 34.8094 69.0073 34.6105 67.9256 34.4582C66.8439 34.306 65.8064 34.0608 64.8749 33.7488C61.7734 32.9611 58.871 31.5331 56.3542 29.5568C55.6671 29.0237 55.0688 28.385 54.5816 27.6646C54.2482 27.1445 54.1544 26.7697 54.3115 26.5594C55.0121 25.5934 59.0099 27.8162 65.8762 28.3351C74.8819 28.9264 83.8801 27.0746 91.9205 22.9753C94.4324 21.8149 97.026 20.5191 99.7757 19.474C102.511 18.4564 105.387 17.8628 108.302 17.7139C110.882 17.574 113.471 17.7472 116.01 18.2298C118.2 18.6375 120.336 19.2962 122.376 20.193C125.39 21.4061 128.064 23.3353 130.165 25.8139C130.515 26.2728 130.801 26.6856 131.035 27.0616C131.222 27.3945 131.378 27.7434 131.502 28.1043C131.71 28.7592 131.696 29.1742 131.46 29.3494Z" fill="#6F4439"/>
<path opacity="0.3" d="M131.557 29.3032C131.393 29.0831 131.351 29.216 131.145 28.9585C129.008 26.584 126.346 24.7413 123.371 23.5771C121.347 22.7173 119.234 22.0877 117.07 21.7C114.57 21.2259 112.023 21.0502 109.482 21.1765C106.624 21.3446 103.808 21.9411 101.127 22.9458C98.4134 23.9286 95.8279 25.1938 93.3278 26.3835C85.1869 30.5453 76.0476 32.3569 66.9347 31.615C61.5718 31.1015 58.0085 29.5727 56.3865 29.2742L56.799 29.619C59.3359 31.4943 62.221 32.8452 65.2859 33.5927C66.2461 33.8829 67.2673 34.0289 68.3335 34.2522C69.3997 34.4755 70.5281 34.5747 71.694 34.6314C74.1683 34.8137 76.6543 34.7643 79.1195 34.4838C81.8454 34.1976 84.5414 33.6756 87.1772 32.9236L89.2403 32.2724C89.9469 32.0375 90.6317 31.7739 91.3258 31.4997C92.6941 30.9525 94.0174 30.3279 95.322 29.7246C97.9294 28.4881 100.318 27.2754 102.605 26.3696C104.72 25.4869 106.944 24.895 109.218 24.6099C111.32 24.3627 113.441 24.3195 115.552 24.481C117.42 24.6073 119.272 24.8995 121.088 25.3543C123.751 25.9889 126.315 26.9835 128.709 28.3105C129.135 28.5542 129.534 28.6793 129.886 28.8576C130.238 29.0358 130.54 29.2171 130.798 29.3411C131.213 29.5654 131.361 29.3657 131.557 29.3032Z" fill="black"/>
<g opacity="0.2">
<path d="M114.112 14.8324C113.945 14.4638 113.653 14.1662 113.287 13.9927C104.231 8.49447 93.4641 6.53312 83.0509 8.48477C74.458 10.1389 65.2773 13.7538 59.9575 20.1213C58.1472 22.2394 59.2546 24.8649 61.9659 25.4354C67.5501 26.5963 75.8332 27.657 81.5717 25.8623C87.9581 23.8564 93.2701 19.273 99.6203 17.1691C103.432 15.9161 107.486 15.5815 111.452 16.1925C112.038 16.3378 112.649 16.3438 113.237 16.2102C113.527 16.1292 113.777 15.9436 113.939 15.6892C114.1 15.4348 114.162 15.1296 114.112 14.8324Z" fill="white"/>
</g>
<g opacity="0.2">
<path d="M69.0776 40.8083C69.2535 41.1942 69.5607 41.505 69.9445 41.6855C79.3897 47.4529 90.6316 49.5306 101.514 47.5201C110.485 45.8222 120.088 42.0703 125.662 35.4364C127.523 33.1748 126.471 30.4756 123.577 29.8666C117.748 28.641 109.1 27.513 103.095 29.3747C96.4327 31.4481 90.8625 36.2281 84.226 38.4001C80.2415 39.7009 76.0063 40.0435 71.8645 39.4001C71.2536 39.243 70.6139 39.2352 69.9993 39.3775C69.6946 39.4575 69.4309 39.6489 69.2603 39.9137C69.0897 40.1786 69.0245 40.4977 69.0776 40.8083Z" fill="white"/>
</g>
</svg>
