<svg width="37" height="37" viewBox="0 0 37 37" fill="none" xmlns="http://www.w3.org/2000/svg">
<path d="M34.5333 8.55551C33.353 9.07968 32.0852 9.43241 30.7544 9.59151C32.1135 8.77751 33.1557 7.48868 33.6466 5.95195C32.3762 6.70551 30.9678 7.25311 29.468 7.54911C28.268 6.27015 26.5586 5.47095 24.6667 5.47095C21.0333 5.47095 18.0881 8.41738 18.0881 12.0495C18.0881 12.5651 18.1473 13.0683 18.2583 13.548C12.7909 13.2742 7.9439 10.6546 4.69777 6.67345C4.1329 7.64531 3.80854 8.77505 3.80854 9.98248C3.80854 12.2641 4.9691 14.2782 6.734 15.4572C5.65607 15.4227 4.64103 15.1267 3.75427 14.6346C3.75427 14.663 3.75427 14.6889 3.75427 14.7172C3.75427 17.9054 6.02113 20.5645 9.0317 21.1676C8.4804 21.318 7.89827 21.3982 7.29763 21.3982C6.8746 21.3982 6.46143 21.3563 6.0606 21.281C6.89803 23.8945 9.3277 25.7975 12.2063 25.8505C9.95547 27.6154 7.1188 28.6675 4.03547 28.6675C3.50514 28.6675 2.98097 28.6367 2.46544 28.575C5.37733 30.441 8.83437 31.5301 12.5504 31.5301C24.6519 31.5301 31.2675 21.5055 31.2675 12.8117C31.2675 12.5268 31.2613 12.2432 31.249 11.9607C32.5353 11.032 33.6515 9.87395 34.5333 8.55551Z" fill="#FEE8DA"/>
</svg>
