<svg width="37" height="37" viewBox="0 0 37 37" fill="none" xmlns="http://www.w3.org/2000/svg">
<path d="M11.84 2.21997C6.53604 2.21997 2.22 6.53601 2.22 11.84V25.16C2.22 30.4639 6.53604 34.78 11.84 34.78H25.16C30.464 34.78 34.78 30.4639 34.78 25.16V11.84C34.78 6.53601 30.464 2.21997 25.16 2.21997H11.84ZM11.84 3.69997H25.16C29.664 3.69997 33.3 7.33597 33.3 11.84V25.16C33.3 29.664 29.664 33.3 25.16 33.3H11.84C7.336 33.3 3.7 29.664 3.7 25.16V11.84C3.7 7.33597 7.336 3.69997 11.84 3.69997ZM27.38 8.13997C26.9875 8.13997 26.611 8.2959 26.3335 8.57345C26.0559 8.85101 25.9 9.22745 25.9 9.61997C25.9 10.0125 26.0559 10.3889 26.3335 10.6665C26.611 10.944 26.9875 11.1 27.38 11.1C27.7725 11.1 28.149 10.944 28.4265 10.6665C28.7041 10.3889 28.86 10.0125 28.86 9.61997C28.86 9.22745 28.7041 8.85101 28.4265 8.57345C28.149 8.2959 27.7725 8.13997 27.38 8.13997ZM18.5 10.36C14.0132 10.36 10.36 14.0131 10.36 18.5C10.36 22.9868 14.0132 26.64 18.5 26.64C22.9868 26.64 26.64 22.9868 26.64 18.5C26.64 14.0131 22.9868 10.36 18.5 10.36ZM18.5 11.84C22.187 11.84 25.16 14.813 25.16 18.5C25.16 22.187 22.187 25.16 18.5 25.16C14.813 25.16 11.84 22.187 11.84 18.5C11.84 14.813 14.813 11.84 18.5 11.84Z" fill="#FBE6D9"/>
</svg>
