<svg width="30" height="30" viewBox="0 0 30 30" fill="none" xmlns="http://www.w3.org/2000/svg">
<path d="M19.4531 5.6325C19.4531 -0.223121 10.5459 -0.224997 10.5469 5.6325V18.0431C9.38906 19.1906 8.67188 20.7816 8.67188 22.5394C8.67188 26.0344 11.505 28.8675 15 28.8675C18.495 28.8675 21.3281 26.0344 21.3281 22.5394C21.3281 20.7816 20.6109 19.1906 19.4531 18.0431V5.6325ZM15 27.4219C12.2812 27.4219 10.0781 25.2178 10.0781 22.4991C10.0781 21.0431 10.71 19.7353 11.7141 18.8344L11.7188 18.8306L11.7244 18.8194C11.8462 18.705 11.9259 18.5475 11.9409 18.3722V18.3694C11.9419 18.3563 11.9475 18.3469 11.9484 18.3338L11.9541 18.3066V5.63157C11.9513 5.58188 11.9494 5.52375 11.9494 5.46469C11.9494 3.86719 13.2441 2.5725 14.8416 2.5725C14.8978 2.5725 14.9541 2.57438 15.0094 2.57719H15.0019C15.0497 2.57438 15.105 2.5725 15.1613 2.5725C16.7588 2.5725 18.0534 3.86719 18.0534 5.46469C18.0534 5.52375 18.0516 5.58188 18.0478 5.63907V5.63157V18.3066L18.0534 18.3338L18.06 18.3675C18.0741 18.5466 18.1547 18.705 18.2766 18.8194L18.2822 18.8306C19.2909 19.7363 19.9228 21.0441 19.9228 22.4991C19.9228 25.2178 17.7188 27.4209 15 27.4219ZM15.7031 20.0316V16.5019C15.7031 16.1138 15.3881 15.7988 15 15.7988C14.6119 15.7988 14.2969 16.1138 14.2969 16.5019V20.0316C13.2056 20.3484 12.4219 21.3384 12.4219 22.5122C12.4219 23.9363 13.5759 25.0903 15 25.0903C16.4241 25.0903 17.5781 23.9363 17.5781 22.5122C17.5781 21.3384 16.7944 20.3484 15.7209 20.0363L15.7031 20.0316ZM24.8438 2.10938C23.1609 2.10938 21.7969 3.47344 21.7969 5.15625C21.7969 6.83907 23.1609 8.20313 24.8438 8.20313C26.5266 8.20313 27.8906 6.83907 27.8906 5.15625C27.8888 3.47438 26.5256 2.11125 24.8438 2.10938ZM24.8438 6.79688C23.9381 6.79688 23.2031 6.06188 23.2031 5.15625C23.2031 4.25063 23.9381 3.51563 24.8438 3.51563C25.7494 3.51563 26.4844 4.25063 26.4844 5.15625C26.4834 6.06188 25.7494 6.79594 24.8438 6.79688Z" fill="#6F4439"/>
</svg>
