<svg width="128" height="58" viewBox="0 0 128 58" fill="none" xmlns="http://www.w3.org/2000/svg">
<path d="M26.0117 10.2578V46H21.4951V15.8975L12.3887 19.2178V15.1406L25.3037 10.2578H26.0117ZM61.6074 25.3945V30.8145C61.6074 33.7279 61.347 36.1855 60.8262 38.1875C60.3053 40.1895 59.5566 41.8008 58.5801 43.0215C57.6035 44.2422 56.4235 45.1292 55.04 45.6826C53.6729 46.2197 52.1266 46.4883 50.4014 46.4883C49.0342 46.4883 47.7728 46.3174 46.6172 45.9756C45.4616 45.6338 44.4199 45.0885 43.4922 44.3398C42.5807 43.5749 41.7995 42.582 41.1484 41.3613C40.4974 40.1406 40.001 38.6595 39.6592 36.918C39.3174 35.1764 39.1465 33.1419 39.1465 30.8145V25.3945C39.1465 22.4811 39.4069 20.0397 39.9277 18.0703C40.4648 16.1009 41.2217 14.5221 42.1982 13.334C43.1748 12.1296 44.3467 11.2669 45.7139 10.7461C47.0973 10.2253 48.6436 9.96484 50.3525 9.96484C51.736 9.96484 53.0055 10.1357 54.1611 10.4775C55.333 10.8031 56.3747 11.332 57.2861 12.0645C58.1976 12.7806 58.9707 13.7409 59.6055 14.9453C60.2565 16.1335 60.7529 17.5902 61.0947 19.3154C61.4365 21.0407 61.6074 23.0671 61.6074 25.3945ZM57.0664 31.5469V24.6377C57.0664 23.0426 56.9688 21.6429 56.7734 20.4385C56.5944 19.2178 56.3258 18.1761 55.9678 17.3135C55.6097 16.4508 55.154 15.751 54.6006 15.2139C54.0635 14.6768 53.4368 14.2861 52.7207 14.042C52.0208 13.7816 51.2314 13.6514 50.3525 13.6514C49.2783 13.6514 48.3262 13.8548 47.4961 14.2617C46.666 14.6523 45.9661 15.279 45.3965 16.1416C44.8431 17.0042 44.4199 18.1354 44.127 19.5352C43.834 20.9349 43.6875 22.6357 43.6875 24.6377V31.5469C43.6875 33.1419 43.777 34.5498 43.9561 35.7705C44.1514 36.9912 44.4362 38.0492 44.8105 38.9443C45.1849 39.8232 45.6406 40.5475 46.1777 41.1172C46.7148 41.6868 47.3333 42.11 48.0332 42.3867C48.7493 42.6471 49.5387 42.7773 50.4014 42.7773C51.5081 42.7773 52.4766 42.5658 53.3066 42.1426C54.1367 41.7194 54.8285 41.0602 55.3818 40.165C55.9515 39.2536 56.3747 38.0898 56.6514 36.6738C56.9281 35.2415 57.0664 33.5326 57.0664 31.5469ZM67.4668 20.5361V18.5586C67.4668 16.8822 67.8086 15.401 68.4922 14.1152C69.1758 12.8132 70.1361 11.7959 71.373 11.0635C72.6263 10.3148 74.1074 9.94043 75.8164 9.94043C77.5417 9.94043 79.0228 10.3148 80.2598 11.0635C81.513 11.7959 82.4733 12.8132 83.1406 14.1152C83.8242 15.401 84.166 16.8822 84.166 18.5586V20.5361C84.166 22.2126 83.8242 23.7018 83.1406 25.0039C82.4733 26.2897 81.5212 27.2988 80.2842 28.0312C79.0472 28.7637 77.5742 29.1299 75.8652 29.1299C74.14 29.1299 72.6507 28.7637 71.3975 28.0312C70.1442 27.2988 69.1758 26.2897 68.4922 25.0039C67.8086 23.7018 67.4668 22.2126 67.4668 20.5361ZM71.4463 18.5586V20.5361C71.4463 21.529 71.6009 22.416 71.9102 23.1973C72.2357 23.9785 72.724 24.597 73.375 25.0527C74.0423 25.5085 74.8724 25.7363 75.8652 25.7363C76.8418 25.7363 77.6475 25.5085 78.2822 25.0527C78.9333 24.597 79.4134 23.9785 79.7227 23.1973C80.0482 22.416 80.2109 21.529 80.2109 20.5361V18.5586C80.2109 17.582 80.0482 16.7031 79.7227 15.9219C79.3971 15.1406 78.9089 14.5221 78.2578 14.0664C77.623 13.6107 76.8092 13.3828 75.8164 13.3828C74.8398 13.3828 74.026 13.6107 73.375 14.0664C72.724 14.5221 72.2357 15.1406 71.9102 15.9219C71.6009 16.7031 71.4463 17.582 71.4463 18.5586ZM112.804 34.6963H117.491C117.247 36.9424 116.604 38.9525 115.562 40.7266C114.521 42.5007 113.048 43.9085 111.144 44.9502C109.239 45.9756 106.863 46.4883 104.015 46.4883C101.931 46.4883 100.035 46.0977 98.3262 45.3164C96.6335 44.5352 95.1768 43.4284 93.9561 41.9961C92.7354 40.5475 91.7913 38.8141 91.124 36.7959C90.473 34.7614 90.1475 32.499 90.1475 30.0088V26.4688C90.1475 23.9785 90.473 21.7243 91.124 19.7061C91.7913 17.6715 92.7435 15.93 93.9805 14.4814C95.2337 13.0329 96.7393 11.918 98.4971 11.1367C100.255 10.3555 102.232 9.96484 104.43 9.96484C107.115 9.96484 109.386 10.4694 111.241 11.4785C113.097 12.4876 114.537 13.8874 115.562 15.6777C116.604 17.4518 117.247 19.5107 117.491 21.8545H112.804C112.576 20.1943 112.153 18.7702 111.534 17.582C110.916 16.3776 110.037 15.4499 108.897 14.7988C107.758 14.1478 106.269 13.8223 104.43 13.8223C102.851 13.8223 101.459 14.1234 100.255 14.7256C99.0667 15.3278 98.0658 16.1823 97.252 17.2891C96.4544 18.3958 95.8522 19.7223 95.4453 21.2686C95.0384 22.8148 94.835 24.5319 94.835 26.4199V30.0088C94.835 31.7503 95.014 33.3861 95.3721 34.916C95.7464 36.446 96.3079 37.7887 97.0566 38.9443C97.8053 40.0999 98.7575 41.0114 99.9131 41.6787C101.069 42.3298 102.436 42.6553 104.015 42.6553C106.017 42.6553 107.612 42.3379 108.8 41.7031C109.988 41.0684 110.883 40.1569 111.485 38.9688C112.104 37.7806 112.543 36.3564 112.804 34.6963Z" fill="#421C13" fill-opacity="0.7"/>
</svg>
