<svg width="123" height="63" viewBox="0 0 123 63" fill="none" xmlns="http://www.w3.org/2000/svg">
<path d="M60.9746 18.8076C62.4686 12.9382 60.9746 6.48837 59.3763 2.09706L58.9139 0.752686L57.54 1.15622C49.0884 3.67947 43.8469 11.4442 43.8469 21.4352C43.8469 32.2445 50.0587 40.6372 59.3015 42.1312L61.5709 42.5189L61.0041 40.2949C60.0157 36.7809 59.5169 33.2012 59.5124 29.5535C59.5078 25.9036 59.9953 22.3216 60.9746 18.8076ZM58.0773 18.0754C57.1433 21.4193 56.6309 24.829 56.5402 28.2998C56.4496 31.773 56.7828 35.2031 57.54 38.5923C51.0449 36.3978 46.8327 29.7825 46.8327 21.4193C46.8327 13.3871 50.7003 7.03927 57.0617 4.50242C58.1068 7.9801 59.2562 13.3553 58.0773 18.0754Z" fill="#421C13"/>
<mask id="mask0_271_179" style="mask-type:luminance" maskUnits="userSpaceOnUse" x="61" y="0" width="20" height="43">
<path d="M61.4757 0H80.0475V42.2264H61.4757V0Z" fill="white"/>
</mask>
<g mask="url(#mask0_271_179)">
<path d="M79.6847 21.4351C79.6847 10.5033 73.3982 2.17184 64.0352 0.709577L61.5414 0.319641L62.3938 2.67966C63.8855 6.81479 65.3795 12.8475 64.0352 18.0889C63.0195 21.7865 62.5117 25.5521 62.5117 29.3857C62.5117 33.2193 63.0195 36.985 64.0352 40.6825L64.4092 42.1765L65.901 41.7435C74.3843 39.2792 79.6847 31.485 79.6847 21.4351ZM66.5153 38.3679C65.7695 35.1396 65.4339 31.8704 65.5065 28.5605C65.579 25.2483 66.0597 21.9974 66.9483 18.8076C67.4222 16.3841 67.5831 13.9402 67.4244 11.4736C67.268 9.00932 66.801 6.60622 66.0211 4.26207C72.4868 6.47247 76.6673 13.0583 76.6673 21.4351C76.699 29.4832 72.8314 35.8287 66.5153 38.3679Z" fill="#421C13"/>
</g>
<mask id="mask1_271_179" style="mask-type:luminance" maskUnits="userSpaceOnUse" x="18" y="6" width="35" height="38">
<path d="M18.2382 6.82391H52.1898V43.3872H18.2382V6.82391Z" fill="white"/>
</mask>
<g mask="url(#mask1_271_179)">
<path d="M42.6522 31.4851C42.294 30.5738 42.0015 29.642 41.7725 28.6921C41.1514 26.2981 40.8476 23.8632 40.8612 21.3899C40.8294 17.9416 41.4416 14.6113 42.6975 11.4012L43.2348 10.0114L41.861 9.45827C32.9468 5.90578 20.3737 7.24788 19.85 7.30909L18.6552 7.44285L18.5215 8.63759C18.0454 13.7136 18.1701 18.7759 18.8955 23.8247L19.12 25.0784C19.5757 27.7603 20.4326 30.3085 21.6886 32.7229C22.3483 34.0265 23.1894 35.2008 24.2118 36.2482C30.2876 42.2945 41.7408 43.2059 48.1022 43.2059H52.1784L48.9977 40.6373C47.5694 39.4063 46.318 38.0143 45.2434 36.4636C44.1688 34.9152 43.3051 33.2534 42.6522 31.4851ZM23.9579 30.5443C23.1463 28.7918 22.5546 26.9714 22.1805 25.0784H34.1257L38.9931 29.8868L39.1722 30.5443H23.9579ZM31.1853 22.0926H21.6727C21.2465 18.7986 21.0969 15.4932 21.2238 12.1765L31.1853 22.0926ZM38.0523 24.7202L34.1711 20.8526V10.5782C35.9439 10.8367 37.6873 11.2357 39.3967 11.773C38.3742 14.9128 37.8755 18.1321 37.9049 21.4352C37.8936 22.5325 37.9435 23.6275 38.0523 24.7202ZM31.1853 10.2359V17.8668L23.3889 10.0704C25.9915 9.95476 28.5895 10.0092 31.1853 10.2359ZM26.361 34.1263C26.1706 33.9358 25.996 33.7318 25.8396 33.5141H40.2785C41.2942 35.915 42.6431 38.1095 44.3253 40.1C38.4263 39.7577 30.6458 38.4428 26.361 34.1421V34.1263Z" fill="#421C13"/>
</g>
<mask id="mask2_271_179" style="mask-type:luminance" maskUnits="userSpaceOnUse" x="71" y="6" width="35" height="38">
<path d="M71.3419 6.82391H105.294V43.3872H71.3419V6.82391Z" fill="white"/>
</mask>
<g mask="url(#mask2_271_179)">
<path d="M104.994 8.63756L104.845 7.44281L103.666 7.30905C103.129 7.30905 90.5712 5.91934 81.6412 9.50358L80.2674 10.0567L80.8206 11.4442C82.0675 14.6589 82.6796 17.9869 82.6569 21.4352C82.6614 23.8904 82.3622 26.3094 81.7591 28.692C81.5279 29.6352 81.2309 30.5556 80.8636 31.4533C80.2198 33.233 79.3583 34.8993 78.2837 36.4545C77.2091 38.012 75.9532 39.4062 74.5181 40.6372L71.3964 43.2058H75.4884C81.775 43.2058 93.2441 42.2945 99.2904 36.2618C100.32 35.2144 101.177 34.0401 101.859 32.7388C103.11 30.3175 103.967 27.7648 104.428 25.0783L104.666 23.8247C105.391 18.7759 105.5 13.7135 104.994 8.63756ZM101.859 22.0767H92.3327L102.247 12.1606C102.387 15.4818 102.258 18.7918 101.859 22.0926V22.0767ZM99.5738 30.5284H84.3436C84.3436 30.3039 84.4774 30.0954 84.5386 29.8709L89.3448 25.0625H101.292C100.939 26.9577 100.365 28.785 99.5738 30.5442V30.5284ZM100.127 10.0567L92.3327 17.8509V10.2358C94.9263 10.025 97.5266 9.97059 100.127 10.0703V10.0567ZM89.3448 10.5646V20.8367L85.4341 24.7201C85.5383 23.6456 85.6132 22.5392 85.6132 21.4352C85.6404 18.132 85.1439 14.9128 84.1192 11.7729C85.8285 11.2333 87.5719 10.8343 89.3448 10.5782V10.5646ZM79.2064 40.1158C80.8886 38.1253 82.2375 35.9285 83.2531 33.53H97.6921C97.513 33.7385 97.3498 33.963 97.1707 34.1421C92.8995 38.4427 85.1053 39.7576 79.2064 40.1158Z" fill="#421C13"/>
</g>
<path d="M1.66856 61.2816C0.555432 60.1889 0 58.8015 0 57.1193C0 55.4394 0.557699 54.052 1.67763 52.957C2.7953 51.8642 4.16687 51.3156 5.79463 51.3156C7.03245 51.3156 8.12971 51.6307 9.08641 52.2587C10.0477 52.889 10.7323 53.7708 11.1449 54.9067H8.39723C7.8894 53.9091 7.02111 53.4104 5.79463 53.4104C4.76538 53.4104 3.92883 53.7504 3.28272 54.426C2.64114 55.1039 2.32148 56.0039 2.32148 57.1284C2.32148 58.2483 2.64114 59.1461 3.28272 59.8217C3.92883 60.4995 4.76538 60.8373 5.79463 60.8373C7.00978 60.8373 7.8758 60.3431 8.39723 59.3501H11.1449C10.7323 60.4882 10.0477 61.3678 9.08641 61.989C8.12971 62.6124 7.03245 62.923 5.79463 62.923C4.16234 62.923 2.78623 62.3766 1.66856 61.2816Z" fill="#421C13"/>
<path d="M21.6048 59.8217C22.2442 59.1461 22.5661 58.2438 22.5661 57.1193C22.5661 55.9948 22.2442 55.0971 21.6048 54.426C20.9633 53.7504 20.129 53.4104 19.102 53.4104C18.0728 53.4104 17.2362 53.7504 16.5901 54.426C15.9485 55.1039 15.6289 56.0039 15.6289 57.1284C15.6289 58.2483 15.9485 59.1461 16.5901 59.8217C17.2362 60.4995 18.0728 60.8373 19.102 60.8373C20.129 60.8373 20.9633 60.4995 21.6048 59.8217ZM19.102 62.9411C17.4697 62.9411 16.0936 62.3948 14.9759 61.2998C13.8628 60.2071 13.3074 58.8151 13.3074 57.1284C13.3074 55.4417 13.8651 54.052 14.985 52.957C16.1027 51.8642 17.4788 51.3156 19.1111 51.3156C20.7434 51.3156 22.1149 51.8642 23.2281 52.957C24.3457 54.052 24.9057 55.4417 24.9057 57.1284C24.9057 58.8151 24.3457 60.2071 23.2281 61.2998C22.1149 62.3948 20.7388 62.9411 19.102 62.9411Z" fill="#421C13"/>
<path d="M27.5166 62.8232V51.4788H34.5445V53.2381H29.8109V56.2125H33.42V57.9626H29.8109V62.8232H27.5166Z" fill="#421C13"/>
<path d="M37.1519 62.8232V51.4788H44.1798V53.2381H39.4461V56.2125H43.0553V57.9626H39.4461V62.8232H37.1519Z" fill="#421C13"/>
<path d="M53.3435 51.4516V53.2018H49.0814V56.1762H52.8538V57.9354H49.0814V61.064H53.3435V62.8232H46.7871V51.4516H53.3435Z" fill="#421C13"/>
<path d="M63.0438 51.4516V53.2018H58.7817V56.1762H62.5541V57.9354H58.7817V61.064H63.0438V62.8232H56.4874V51.4516H63.0438Z" fill="#421C13"/>
<path d="M75.5472 53.1565C75.0938 53.1565 74.722 53.2744 74.4318 53.5101C74.1462 53.7414 74.0056 54.061 74.0056 54.4714C74.0056 54.884 74.1099 55.2059 74.323 55.4417C74.5338 55.6729 74.8127 55.8498 75.1573 55.9767C75.5064 56.0991 75.8873 56.2102 76.2999 56.3122C76.7102 56.4097 77.1206 56.5276 77.5332 56.6659C77.9435 56.8065 78.3221 56.9788 78.6667 57.1828C79.0158 57.3891 79.297 57.6906 79.5101 58.0896C79.7209 58.4841 79.8274 58.9602 79.8274 59.5224C79.8274 60.4542 79.4556 61.259 78.712 61.9346C77.9685 62.6056 76.98 62.9411 75.7467 62.9411C74.518 62.9411 73.5273 62.651 72.7723 62.0706C72.0151 61.4902 71.6388 60.6741 71.6388 59.6222H74.0691C74.1598 60.6197 74.7265 61.1184 75.7739 61.1184C76.2931 61.1184 76.7034 60.9824 77.0072 60.7103C77.3155 60.4383 77.4697 60.0801 77.4697 59.6312C77.4697 59.1846 77.2657 58.8309 76.8621 58.5702C76.4631 58.305 75.978 58.1078 75.4112 57.9808C74.8422 57.8493 74.2709 57.6906 73.6973 57.5092C73.1215 57.3279 72.6363 57.0082 72.2373 56.548C71.8383 56.0833 71.6388 55.4734 71.6388 54.7162C71.6388 53.6892 72.0106 52.8663 72.7542 52.2496C73.5023 51.6285 74.4636 51.3156 75.6379 51.3156C76.8168 51.3156 77.7621 51.5854 78.4763 52.1227C79.1881 52.6623 79.5781 53.4784 79.6461 54.5711H77.1432C77.1002 54.1358 76.9369 53.7913 76.6536 53.5373C76.3747 53.2834 76.0052 53.1565 75.5472 53.1565Z" fill="#421C13"/>
<path d="M89.3823 51.4516V53.2018H85.1202V56.1762H88.8926V57.9354H85.1202V61.064H89.3823V62.8232H82.8259V51.4516H89.3823Z" fill="#421C13"/>
<path d="M99.953 51.4516H102.247V62.8232H99.953L94.8204 54.961V62.8232H92.5261V51.4516H94.8204L99.953 59.3138V51.4516Z" fill="#421C13"/>
<path d="M109.165 53.1565C108.711 53.1565 108.34 53.2744 108.049 53.5101C107.764 53.7414 107.623 54.061 107.623 54.4714C107.623 54.884 107.728 55.2059 107.941 55.4417C108.152 55.6729 108.43 55.8498 108.775 55.9767C109.124 56.0991 109.505 56.2102 109.918 56.3122C110.328 56.4097 110.738 56.5276 111.151 56.6659C111.561 56.8065 111.94 56.9788 112.284 57.1828C112.634 57.3891 112.915 57.6906 113.128 58.0896C113.339 58.4841 113.445 58.9602 113.445 59.5224C113.445 60.4542 113.073 61.259 112.33 61.9346C111.586 62.6056 110.598 62.9411 109.364 62.9411C108.136 62.9411 107.145 62.651 106.39 62.0706C105.633 61.4902 105.256 60.6741 105.256 59.6222H107.687C107.777 60.6197 108.344 61.1184 109.392 61.1184C109.911 61.1184 110.321 60.9824 110.625 60.7103C110.933 60.4383 111.087 60.0801 111.087 59.6312C111.087 59.1846 110.883 58.8309 110.48 58.5702C110.081 58.305 109.596 58.1078 109.029 57.9808C108.46 57.8493 107.889 57.6906 107.315 57.5092C106.739 57.3279 106.254 57.0082 105.855 56.548C105.456 56.0833 105.256 55.4734 105.256 54.7162C105.256 53.6892 105.628 52.8663 106.372 52.2496C107.12 51.6285 108.081 51.3156 109.256 51.3156C110.434 51.3156 111.38 51.5854 112.094 52.1227C112.806 52.6623 113.196 53.4784 113.264 54.5711H110.761C110.718 54.1358 110.555 53.7913 110.271 53.5373C109.992 53.2834 109.623 53.1565 109.165 53.1565Z" fill="#421C13"/>
<path d="M123 51.4516V53.2018H118.738V56.1762H122.51V57.9354H118.738V61.064H123V62.8232H116.444V51.4516H123Z" fill="#421C13"/>
</svg>
