<svg width="362" height="23" viewBox="0 0 362 23" fill="none" xmlns="http://www.w3.org/2000/svg">
<path d="M12.274 12.036L12.427 14.96C12.1777 15.3793 11.8433 15.759 11.424 16.099C11.0047 16.439 10.4833 16.7167 9.86 16.932C9.23667 17.136 8.5 17.238 7.65 17.238C6.26733 17.2267 5.05467 16.9773 4.012 16.49C2.98067 15.9913 2.18167 15.283 1.615 14.365C1.04833 13.447 0.765 12.3363 0.765 11.033C0.765 9.76367 1.04267 8.67 1.598 7.752C2.15333 6.82267 2.94667 6.10867 3.978 5.61C5.02067 5.11133 6.26167 4.862 7.701 4.862C8.60767 4.862 9.418 4.95267 10.132 5.134C10.8573 5.31533 11.4637 5.53633 11.951 5.797L11.968 8.704H11.815C11.509 7.582 11.0103 6.783 10.319 6.307C9.62767 5.81967 8.81733 5.576 7.888 5.576C6.98133 5.576 6.205 5.797 5.559 6.239C4.913 6.681 4.41433 7.30433 4.063 8.109C3.71167 8.91367 3.536 9.877 3.536 10.999C3.536 12.121 3.70033 13.09 4.029 13.906C4.369 14.722 4.845 15.3567 5.457 15.81C6.08033 16.2633 6.81133 16.5013 7.65 16.524C8.52267 16.524 9.25933 16.3823 9.86 16.099C10.4607 15.8157 10.9423 15.3453 11.305 14.688C11.679 14.0307 11.9567 13.1467 12.138 12.036H12.274ZM18.6876 6.341L23.7196 16.915H20.8466L17.6846 9.452L18.6876 6.341ZM15.4916 15.878C15.367 16.184 15.384 16.422 15.5426 16.592C15.7013 16.7507 15.877 16.83 16.0696 16.83H16.2056V17H12.8056V16.83C12.8056 16.83 12.8283 16.83 12.8736 16.83C12.919 16.83 12.9416 16.83 12.9416 16.83C13.1683 16.83 13.4063 16.762 13.6556 16.626C13.905 16.4787 14.109 16.2293 14.2676 15.878H15.4916ZM18.6876 6.341L18.7216 8.381L15.0326 16.949H13.7746L17.7526 8.398C17.7753 8.33 17.8263 8.211 17.9056 8.041C17.985 7.85967 18.07 7.66133 18.1606 7.446C18.2513 7.21933 18.3363 7.00967 18.4156 6.817C18.495 6.613 18.5403 6.45433 18.5516 6.341H18.6876ZM20.1666 13.668V14.331H15.8316V13.668H20.1666ZM20.4216 15.878H23.2266C23.3966 16.2293 23.6063 16.4787 23.8556 16.626C24.105 16.762 24.343 16.83 24.5696 16.83C24.5696 16.83 24.5923 16.83 24.6376 16.83C24.683 16.83 24.7056 16.83 24.7056 16.83V17H19.7076V16.83H19.8436C20.0363 16.83 20.212 16.7507 20.3706 16.592C20.5293 16.422 20.5463 16.184 20.4216 15.878ZM28.3701 6.8V17H25.9221V6.8H28.3701ZM32.3311 16.32L32.7391 17H28.3361V16.32H32.3311ZM33.4531 13.872L32.7901 17H29.8491L30.3761 16.32C30.8634 16.32 31.2941 16.2237 31.6681 16.031C32.0534 15.827 32.3821 15.5437 32.6541 15.181C32.9261 14.807 33.1357 14.3707 33.2831 13.872H33.4531ZM25.9561 15.929L26.0411 17H24.7831V16.83C24.7831 16.83 24.8171 16.83 24.8851 16.83C24.9531 16.83 24.9927 16.83 25.0041 16.83C25.2534 16.83 25.4631 16.745 25.6331 16.575C25.8144 16.3937 25.9107 16.1783 25.9221 15.929H25.9561ZM28.3361 7.871V6.8H29.5091V6.97C29.4977 6.97 29.4581 6.97 29.3901 6.97C29.3334 6.97 29.3051 6.97 29.3051 6.97C29.0557 6.97 28.8404 7.055 28.6591 7.225C28.4777 7.395 28.3814 7.61033 28.3701 7.871H28.3361ZM25.9561 7.871H25.9221C25.9107 7.61033 25.8144 7.395 25.6331 7.225C25.4517 7.055 25.2364 6.97 24.9871 6.97C24.9757 6.97 24.9361 6.97 24.8681 6.97C24.8114 6.97 24.7831 6.97 24.7831 6.97V6.8H25.9561V7.871ZM44.4958 12.733L44.6828 15.3C44.4674 15.6627 44.1671 15.9913 43.7818 16.286C43.3964 16.5693 42.9261 16.796 42.3708 16.966C41.8154 17.136 41.1694 17.221 40.4328 17.221C39.1634 17.2097 38.0698 16.9943 37.1518 16.575C36.2338 16.1557 35.5254 15.555 35.0268 14.773C34.5394 13.9797 34.2958 13.0163 34.2958 11.883C34.2958 10.7723 34.5394 9.826 35.0268 9.044C35.5141 8.25067 36.2168 7.64433 37.1348 7.225C38.0528 6.79433 39.1521 6.579 40.4328 6.579C41.2034 6.579 41.9174 6.65267 42.5748 6.8C43.2434 6.94733 43.7988 7.13433 44.2408 7.361L44.2578 10.064H44.1218C43.8384 9.02133 43.3908 8.29033 42.7788 7.871C42.1668 7.45167 41.4414 7.242 40.6028 7.242C39.7754 7.242 39.0841 7.43467 38.5288 7.82C37.9848 8.20533 37.5711 8.74367 37.2878 9.435C37.0158 10.1263 36.8798 10.9367 36.8798 11.866C36.8798 12.8067 37.0158 13.6227 37.2878 14.314C37.5711 15.0053 37.9791 15.5437 38.5118 15.929C39.0444 16.3143 39.6848 16.5183 40.4328 16.541C41.2374 16.541 41.9004 16.4163 42.4218 16.167C42.9544 15.9177 43.3738 15.5153 43.6798 14.96C43.9971 14.4047 44.2238 13.6623 44.3598 12.733H44.4958ZM49.2493 6.8V13.209C49.2493 14.2517 49.4873 15.0677 49.9633 15.657C50.4506 16.2463 51.1249 16.541 51.9863 16.541C52.8816 16.541 53.5729 16.2633 54.0603 15.708C54.5589 15.1527 54.8139 14.382 54.8253 13.396V6.8H55.9473V13.294C55.9473 14.5067 55.5733 15.4643 54.8253 16.167C54.0886 16.8697 53.0403 17.221 51.6803 17.221C50.0369 17.221 48.8129 16.8753 48.0083 16.184C47.2036 15.4813 46.8013 14.5237 46.8013 13.311V6.8H49.2493ZM46.8353 6.8V7.684H46.8013C46.7899 7.46867 46.7106 7.293 46.5633 7.157C46.4159 7.021 46.2346 6.953 46.0193 6.953C46.0193 6.953 45.9796 6.953 45.9003 6.953C45.8209 6.953 45.7813 6.953 45.7813 6.953V6.8H46.8353ZM50.2523 6.8V6.953C50.2523 6.953 50.2126 6.953 50.1333 6.953C50.0539 6.953 50.0143 6.953 50.0143 6.953C49.7989 6.953 49.6176 7.021 49.4703 7.157C49.3229 7.293 49.2493 7.46867 49.2493 7.684H49.2153V6.8H50.2523ZM54.8593 6.8V7.684H54.8253C54.8139 7.46867 54.7346 7.293 54.5873 7.157C54.4399 7.021 54.2643 6.953 54.0603 6.953C54.0603 6.953 54.0206 6.953 53.9413 6.953C53.8619 6.953 53.8223 6.953 53.8223 6.953V6.8H54.8593ZM56.9503 6.8V6.953C56.9503 6.953 56.9106 6.953 56.8313 6.953C56.7633 6.953 56.7293 6.953 56.7293 6.953C56.5139 6.953 56.3269 7.021 56.1683 7.157C56.0209 7.293 55.9473 7.46867 55.9473 7.684H55.9133V6.8H56.9503ZM61.4736 6.8V17H59.0256V6.8H61.4736ZM65.4346 16.32L65.8426 17H61.4396V16.32H65.4346ZM66.5566 13.872L65.8936 17H62.9526L63.4796 16.32C63.9669 16.32 64.3976 16.2237 64.7716 16.031C65.1569 15.827 65.4856 15.5437 65.7576 15.181C66.0296 14.807 66.2393 14.3707 66.3866 13.872H66.5566ZM59.0596 15.929L59.1446 17H57.8866V16.83C57.8866 16.83 57.9206 16.83 57.9886 16.83C58.0566 16.83 58.0963 16.83 58.1076 16.83C58.3569 16.83 58.5666 16.745 58.7366 16.575C58.9179 16.3937 59.0143 16.1783 59.0256 15.929H59.0596ZM61.4396 7.871V6.8H62.6126V6.97C62.6013 6.97 62.5616 6.97 62.4936 6.97C62.4369 6.97 62.4086 6.97 62.4086 6.97C62.1593 6.97 61.9439 7.055 61.7626 7.225C61.5813 7.395 61.4849 7.61033 61.4736 7.871H61.4396ZM59.0596 7.871H59.0256C59.0143 7.61033 58.9179 7.395 58.7366 7.225C58.5553 7.055 58.3399 6.97 58.0906 6.97C58.0793 6.97 58.0396 6.97 57.9716 6.97C57.9149 6.97 57.8866 6.97 57.8866 6.97V6.8H59.0596V7.871ZM72.3771 6.341L77.4091 16.915H74.5361L71.3741 9.452L72.3771 6.341ZM69.1811 15.878C69.0564 16.184 69.0734 16.422 69.2321 16.592C69.3908 16.7507 69.5664 16.83 69.7591 16.83H69.8951V17H66.4951V16.83C66.4951 16.83 66.5178 16.83 66.5631 16.83C66.6084 16.83 66.6311 16.83 66.6311 16.83C66.8578 16.83 67.0958 16.762 67.3451 16.626C67.5944 16.4787 67.7984 16.2293 67.9571 15.878H69.1811ZM72.3771 6.341L72.4111 8.381L68.7221 16.949H67.4641L71.4421 8.398C71.4648 8.33 71.5158 8.211 71.5951 8.041C71.6744 7.85967 71.7594 7.66133 71.8501 7.446C71.9408 7.21933 72.0258 7.00967 72.1051 6.817C72.1844 6.613 72.2298 6.45433 72.2411 6.341H72.3771ZM73.8561 13.668V14.331H69.5211V13.668H73.8561ZM74.1111 15.878H76.9161C77.0861 16.2293 77.2958 16.4787 77.5451 16.626C77.7944 16.762 78.0324 16.83 78.2591 16.83C78.2591 16.83 78.2818 16.83 78.3271 16.83C78.3724 16.83 78.3951 16.83 78.3951 16.83V17H73.3971V16.83H73.5331C73.7258 16.83 73.9014 16.7507 74.0601 16.592C74.2188 16.422 74.2358 16.184 74.1111 15.878ZM84.2015 6.8C85.4142 6.8 86.4569 7.004 87.3295 7.412C88.2022 7.80867 88.8709 8.39233 89.3355 9.163C89.8002 9.92233 90.0325 10.8347 90.0325 11.9C90.0325 12.9653 89.8002 13.8777 89.3355 14.637C88.8709 15.3963 88.2022 15.98 87.3295 16.388C86.4569 16.796 85.4142 17 84.2015 17H80.4275L80.3935 16.32C81.2549 16.32 81.9462 16.32 82.4675 16.32C83.0002 16.32 83.3855 16.32 83.6235 16.32C83.8729 16.32 83.9975 16.32 83.9975 16.32C85.0629 16.32 85.9015 15.929 86.5135 15.147C87.1255 14.365 87.4315 13.2827 87.4315 11.9C87.4315 10.5173 87.1255 9.435 86.5135 8.653C85.9015 7.85967 85.0629 7.463 83.9975 7.463C83.9975 7.463 83.8729 7.463 83.6235 7.463C83.3742 7.463 82.9719 7.463 82.4165 7.463C81.8612 7.463 81.1302 7.463 80.2235 7.463V6.8H84.2015ZM82.0765 6.8V17H79.6285V6.8H82.0765ZM79.6795 15.912V17H78.4555V16.83C78.4555 16.83 78.4895 16.83 78.5575 16.83C78.6255 16.83 78.6652 16.83 78.6765 16.83C78.9372 16.83 79.1582 16.7393 79.3395 16.558C79.5322 16.3767 79.6285 16.1613 79.6285 15.912H79.6795ZM79.6625 7.871H79.6285C79.6172 7.61033 79.5152 7.395 79.3225 7.225C79.1412 7.055 78.9202 6.97 78.6595 6.97C78.6595 6.97 78.6255 6.97 78.5575 6.97C78.4895 6.97 78.4555 6.97 78.4555 6.97V6.8H79.6625V7.871ZM97.4065 6.579C98.3132 6.579 99.1349 6.70367 99.8715 6.953C100.608 7.191 101.243 7.54233 101.776 8.007C102.308 8.47167 102.716 9.03267 103 9.69C103.294 10.3473 103.442 11.0897 103.442 11.917C103.442 12.733 103.294 13.4697 103 14.127C102.716 14.773 102.308 15.3283 101.776 15.793C101.243 16.2577 100.608 16.6147 99.8715 16.864C99.1349 17.102 98.3132 17.221 97.4065 17.221C96.5112 17.221 95.6952 17.102 94.9585 16.864C94.2219 16.6147 93.5872 16.2577 93.0545 15.793C92.5219 15.3283 92.1139 14.773 91.8305 14.127C91.5472 13.4697 91.4055 12.733 91.4055 11.917C91.4055 11.0897 91.5472 10.3473 91.8305 9.69C92.1139 9.03267 92.5219 8.47167 93.0545 8.007C93.5872 7.54233 94.2219 7.191 94.9585 6.953C95.6952 6.70367 96.5112 6.579 97.4065 6.579ZM97.4065 16.558C98.0979 16.558 98.6985 16.371 99.2085 15.997C99.7299 15.6117 100.127 15.0733 100.399 14.382C100.682 13.6907 100.824 12.869 100.824 11.917C100.824 10.9537 100.682 10.1263 100.399 9.435C100.127 8.73233 99.7299 8.194 99.2085 7.82C98.6985 7.43467 98.0979 7.242 97.4065 7.242C96.7265 7.242 96.1315 7.43467 95.6215 7.82C95.1115 8.194 94.7149 8.73233 94.4315 9.435C94.1482 10.1263 94.0065 10.9537 94.0065 11.917C94.0065 12.869 94.1482 13.6907 94.4315 14.382C94.7149 15.0733 95.1115 15.6117 95.6215 15.997C96.1315 16.371 96.7265 16.558 97.4065 16.558ZM107.923 6.8H109.759C110.224 6.8 110.677 6.851 111.119 6.953C111.561 7.04367 111.958 7.19667 112.309 7.412C112.661 7.616 112.938 7.89933 113.142 8.262C113.358 8.61333 113.465 9.05533 113.465 9.588C113.465 9.98467 113.38 10.3813 113.21 10.778C113.052 11.1633 112.797 11.4977 112.445 11.781C112.105 12.0643 111.658 12.2513 111.102 12.342C111.431 12.444 111.743 12.6423 112.037 12.937C112.343 13.2317 112.581 13.5093 112.751 13.77C112.797 13.8607 112.876 14.008 112.989 14.212C113.103 14.4047 113.244 14.6313 113.414 14.892C113.596 15.1413 113.783 15.402 113.975 15.674C114.202 15.98 114.4 16.218 114.57 16.388C114.74 16.5467 114.916 16.66 115.097 16.728C115.279 16.796 115.488 16.83 115.726 16.83V17H114.298C113.686 17 113.165 16.9547 112.734 16.864C112.315 16.7733 111.947 16.609 111.629 16.371C111.323 16.1217 111.04 15.7873 110.779 15.368C110.677 15.2207 110.57 15.045 110.456 14.841C110.343 14.6257 110.23 14.4103 110.116 14.195C110.003 13.9797 109.901 13.77 109.81 13.566C109.731 13.362 109.674 13.192 109.64 13.056C109.493 12.6933 109.323 12.4327 109.13 12.274C108.949 12.104 108.779 12.019 108.62 12.019V11.866C108.62 11.866 108.66 11.866 108.739 11.866C108.819 11.866 108.921 11.866 109.045 11.866C109.283 11.866 109.516 11.8263 109.742 11.747C109.98 11.6563 110.196 11.492 110.388 11.254C110.581 11.0047 110.723 10.642 110.813 10.166C110.836 10.098 110.853 10.0017 110.864 9.877C110.887 9.75233 110.893 9.61067 110.881 9.452C110.859 9.03267 110.779 8.69833 110.643 8.449C110.519 8.18833 110.36 7.99567 110.167 7.871C109.975 7.735 109.776 7.64433 109.572 7.599C109.38 7.54233 109.21 7.514 109.062 7.514C108.847 7.50267 108.649 7.50267 108.467 7.514C108.297 7.514 108.167 7.50833 108.076 7.497C108.065 7.497 108.048 7.44033 108.025 7.327C108.003 7.20233 107.98 7.08333 107.957 6.97C107.935 6.85667 107.923 6.8 107.923 6.8ZM108.093 6.8V17H105.628V6.8H108.093ZM105.679 15.929L105.747 17H104.523V16.83C104.535 16.83 104.563 16.83 104.608 16.83C104.665 16.83 104.705 16.83 104.727 16.83C104.977 16.83 105.186 16.745 105.356 16.575C105.538 16.3937 105.634 16.1783 105.645 15.929H105.679ZM105.679 7.854H105.645C105.634 7.59333 105.538 7.38367 105.356 7.225C105.186 7.055 104.982 6.97 104.744 6.97C104.71 6.97 104.665 6.97 104.608 6.97C104.563 6.97 104.535 6.97 104.523 6.97V6.8H105.747L105.679 7.854ZM108.059 15.929H108.093C108.093 16.2123 108.19 16.4333 108.382 16.592C108.586 16.7507 108.802 16.83 109.028 16.83C109.028 16.83 109.051 16.83 109.096 16.83C109.142 16.83 109.176 16.83 109.198 16.83V17H107.974L108.059 15.929ZM120.754 6.341L125.786 16.915H122.913L119.751 9.452L120.754 6.341ZM117.558 15.878C117.433 16.184 117.45 16.422 117.609 16.592C117.768 16.7507 117.943 16.83 118.136 16.83H118.272V17H114.872V16.83C114.872 16.83 114.895 16.83 114.94 16.83C114.985 16.83 115.008 16.83 115.008 16.83C115.235 16.83 115.473 16.762 115.722 16.626C115.971 16.4787 116.175 16.2293 116.334 15.878H117.558ZM120.754 6.341L120.788 8.381L117.099 16.949H115.841L119.819 8.398C119.842 8.33 119.893 8.211 119.972 8.041C120.051 7.85967 120.136 7.66133 120.227 7.446C120.318 7.21933 120.403 7.00967 120.482 6.817C120.561 6.613 120.607 6.45433 120.618 6.341H120.754ZM122.233 13.668V14.331H117.898V13.668H122.233ZM122.488 15.878H125.293C125.463 16.2293 125.673 16.4787 125.922 16.626C126.171 16.762 126.409 16.83 126.636 16.83C126.636 16.83 126.659 16.83 126.704 16.83C126.749 16.83 126.772 16.83 126.772 16.83V17H121.774V16.83H121.91C122.103 16.83 122.278 16.7507 122.437 16.592C122.596 16.422 122.613 16.184 122.488 15.878ZM262.594 5.1V17H260.044V5.1H262.594ZM266.453 10.778V11.492H262.543V10.778H266.453ZM267.286 5.1V5.831H262.543V5.1H267.286ZM266.453 11.458V13.09H266.283V12.954C266.283 12.5347 266.147 12.189 265.875 11.917C265.603 11.645 265.258 11.5033 264.838 11.492V11.458H266.453ZM266.453 9.18V10.812H264.838V10.778C265.258 10.7667 265.603 10.625 265.875 10.353C266.147 10.0697 266.283 9.71833 266.283 9.299V9.18H266.453ZM267.286 5.78V7.667H267.116V7.497C267.116 6.987 266.963 6.58467 266.657 6.29C266.363 5.984 265.96 5.831 265.45 5.831V5.78H267.286ZM267.286 4.794V5.287L265.212 5.1C265.462 5.1 265.722 5.083 265.994 5.049C266.278 5.015 266.538 4.97533 266.776 4.93C267.014 4.88467 267.184 4.83933 267.286 4.794ZM260.095 15.759V17H258.735V16.83C258.735 16.83 258.769 16.83 258.837 16.83C258.917 16.83 258.956 16.83 258.956 16.83C259.251 16.83 259.5 16.728 259.704 16.524C259.92 16.3087 260.033 16.0537 260.044 15.759H260.095ZM260.095 6.341H260.044C260.033 6.04633 259.92 5.797 259.704 5.593C259.5 5.37767 259.251 5.27 258.956 5.27C258.956 5.27 258.917 5.27 258.837 5.27C258.769 5.27 258.735 5.27 258.735 5.27V5.1H260.095V6.341ZM262.543 15.759H262.594C262.606 16.0537 262.713 16.3087 262.917 16.524C263.133 16.728 263.388 16.83 263.682 16.83C263.682 16.83 263.716 16.83 263.784 16.83C263.852 16.83 263.892 16.83 263.903 16.83V17H262.543V15.759ZM272.099 6.8V17H269.651V6.8H272.099ZM269.702 15.929V17H268.461V16.83C268.461 16.83 268.495 16.83 268.563 16.83C268.631 16.83 268.67 16.83 268.682 16.83C268.942 16.83 269.169 16.745 269.362 16.575C269.554 16.3937 269.651 16.1783 269.651 15.929H269.702ZM272.065 15.929H272.099C272.11 16.1783 272.206 16.3937 272.388 16.575C272.58 16.745 272.813 16.83 273.085 16.83C273.085 16.83 273.113 16.83 273.17 16.83C273.238 16.83 273.277 16.83 273.289 16.83V17H272.065V15.929ZM272.065 7.871V6.8H273.289L273.272 6.97C273.272 6.97 273.243 6.97 273.187 6.97C273.13 6.97 273.096 6.97 273.085 6.97C272.813 6.97 272.58 7.055 272.388 7.225C272.206 7.395 272.11 7.61033 272.099 7.871H272.065ZM269.702 7.871H269.651C269.651 7.61033 269.554 7.395 269.362 7.225C269.169 7.055 268.937 6.97 268.665 6.97C268.665 6.97 268.631 6.97 268.563 6.97C268.495 6.97 268.461 6.97 268.461 6.97V6.8H269.702V7.871ZM275.406 6.562L285.385 15.334L285.555 17.221L275.593 8.449L275.406 6.562ZM275.474 15.963V17H274.216V16.83C274.216 16.83 274.262 16.83 274.352 16.83C274.443 16.83 274.488 16.83 274.488 16.83C274.749 16.83 274.97 16.7507 275.151 16.592C275.333 16.422 275.423 16.2123 275.423 15.963H275.474ZM277.752 15.963C277.764 16.2123 277.86 16.422 278.041 16.592C278.223 16.7507 278.438 16.83 278.687 16.83C278.687 16.83 278.733 16.83 278.823 16.83C278.925 16.83 278.976 16.83 278.976 16.83V17H277.718V15.963H277.752ZM275.406 6.562L277.752 9.112V17H275.423V8.5C275.423 7.922 275.395 7.45733 275.338 7.106C275.282 6.74333 275.253 6.562 275.253 6.562H275.406ZM285.538 6.8V15.232C285.538 15.6287 285.55 15.98 285.572 16.286C285.606 16.5807 285.635 16.813 285.657 16.983C285.691 17.1417 285.708 17.221 285.708 17.221H285.555L283.209 14.518V6.8H285.538ZM285.487 7.837V6.8H286.762V6.97C286.762 6.97 286.711 6.97 286.609 6.97C286.519 6.97 286.473 6.97 286.473 6.97C286.224 6.97 286.003 7.055 285.81 7.225C285.629 7.38367 285.538 7.58767 285.538 7.837H285.487ZM283.209 7.837C283.198 7.58767 283.102 7.38367 282.92 7.225C282.75 7.055 282.535 6.97 282.274 6.97C282.274 6.97 282.223 6.97 282.121 6.97C282.031 6.97 281.985 6.97 281.985 6.97V6.8H283.243V7.837H283.209ZM292.53 6.341L297.562 16.915H294.689L291.527 9.452L292.53 6.341ZM289.334 15.878C289.21 16.184 289.227 16.422 289.385 16.592C289.544 16.7507 289.72 16.83 289.912 16.83H290.048V17H286.648V16.83C286.648 16.83 286.671 16.83 286.716 16.83C286.762 16.83 286.784 16.83 286.784 16.83C287.011 16.83 287.249 16.762 287.498 16.626C287.748 16.4787 287.952 16.2293 288.11 15.878H289.334ZM292.53 6.341L292.564 8.381L288.875 16.949H287.617L291.595 8.398C291.618 8.33 291.669 8.211 291.748 8.041C291.828 7.85967 291.913 7.66133 292.003 7.446C292.094 7.21933 292.179 7.00967 292.258 6.817C292.338 6.613 292.383 6.45433 292.394 6.341H292.53ZM294.009 13.668V14.331H289.674V13.668H294.009ZM294.264 15.878H297.069C297.239 16.2293 297.449 16.4787 297.698 16.626C297.948 16.762 298.186 16.83 298.412 16.83C298.412 16.83 298.435 16.83 298.48 16.83C298.526 16.83 298.548 16.83 298.548 16.83V17H293.55V16.83H293.686C293.879 16.83 294.055 16.7507 294.213 16.592C294.372 16.422 294.389 16.184 294.264 15.878ZM299.595 6.562L309.574 15.334L309.744 17.221L299.782 8.449L299.595 6.562ZM299.663 15.963V17H298.405V16.83C298.405 16.83 298.45 16.83 298.541 16.83C298.632 16.83 298.677 16.83 298.677 16.83C298.938 16.83 299.159 16.7507 299.34 16.592C299.521 16.422 299.612 16.2123 299.612 15.963H299.663ZM301.941 15.963C301.952 16.2123 302.049 16.422 302.23 16.592C302.411 16.7507 302.627 16.83 302.876 16.83C302.876 16.83 302.921 16.83 303.012 16.83C303.114 16.83 303.165 16.83 303.165 16.83V17H301.907V15.963H301.941ZM299.595 6.562L301.941 9.112V17H299.612V8.5C299.612 7.922 299.584 7.45733 299.527 7.106C299.47 6.74333 299.442 6.562 299.442 6.562H299.595ZM309.727 6.8V15.232C309.727 15.6287 309.738 15.98 309.761 16.286C309.795 16.5807 309.823 16.813 309.846 16.983C309.88 17.1417 309.897 17.221 309.897 17.221H309.744L307.398 14.518V6.8H309.727ZM309.676 7.837V6.8H310.951V6.97C310.951 6.97 310.9 6.97 310.798 6.97C310.707 6.97 310.662 6.97 310.662 6.97C310.413 6.97 310.192 7.055 309.999 7.225C309.818 7.38367 309.727 7.58767 309.727 7.837H309.676ZM307.398 7.837C307.387 7.58767 307.29 7.38367 307.109 7.225C306.939 7.055 306.724 6.97 306.463 6.97C306.463 6.97 306.412 6.97 306.31 6.97C306.219 6.97 306.174 6.97 306.174 6.97V6.8H307.432V7.837H307.398ZM321.941 12.733L322.128 15.3C321.913 15.6627 321.612 15.9913 321.227 16.286C320.842 16.5693 320.371 16.796 319.816 16.966C319.261 17.136 318.615 17.221 317.878 17.221C316.609 17.2097 315.515 16.9943 314.597 16.575C313.679 16.1557 312.971 15.555 312.472 14.773C311.985 13.9797 311.741 13.0163 311.741 11.883C311.741 10.7723 311.985 9.826 312.472 9.044C312.959 8.25067 313.662 7.64433 314.58 7.225C315.498 6.79433 316.597 6.579 317.878 6.579C318.649 6.579 319.363 6.65267 320.02 6.8C320.689 6.94733 321.244 7.13433 321.686 7.361L321.703 10.064H321.567C321.284 9.02133 320.836 8.29033 320.224 7.871C319.612 7.45167 318.887 7.242 318.048 7.242C317.221 7.242 316.529 7.43467 315.974 7.82C315.43 8.20533 315.016 8.74367 314.733 9.435C314.461 10.1263 314.325 10.9367 314.325 11.866C314.325 12.8067 314.461 13.6227 314.733 14.314C315.016 15.0053 315.424 15.5437 315.957 15.929C316.49 16.3143 317.13 16.5183 317.878 16.541C318.683 16.541 319.346 16.4163 319.867 16.167C320.4 15.9177 320.819 15.5153 321.125 14.96C321.442 14.4047 321.669 13.6623 321.805 12.733H321.941ZM326.933 6.8V17H324.485V6.8H326.933ZM330.911 16.32L331.302 17H326.899V16.32H330.911ZM330.333 11.611V12.291H326.899V11.611H330.333ZM331.098 6.8V7.48H326.899V6.8H331.098ZM331.999 13.872L331.353 17H328.412L328.939 16.32C329.426 16.32 329.857 16.2237 330.231 16.031C330.616 15.827 330.945 15.5437 331.217 15.181C331.489 14.807 331.698 14.3707 331.846 13.872H331.999ZM330.333 12.257V13.753H330.163V13.617C330.163 13.243 330.044 12.9313 329.806 12.682C329.579 12.4327 329.267 12.3023 328.871 12.291V12.257H330.333ZM330.333 10.149V11.645H328.871V11.611C329.267 11.5997 329.579 11.4693 329.806 11.22C330.044 10.9593 330.163 10.642 330.163 10.268V10.149H330.333ZM331.098 7.446V9.248H330.928V9.095C330.928 8.59633 330.792 8.20533 330.52 7.922C330.259 7.63867 329.879 7.49133 329.381 7.48V7.446H331.098ZM331.098 6.545V6.953L329.313 6.8C329.641 6.8 329.987 6.77167 330.35 6.715C330.712 6.647 330.962 6.59033 331.098 6.545ZM324.519 15.929L324.604 17H323.346V16.83C323.346 16.83 323.38 16.83 323.448 16.83C323.516 16.83 323.555 16.83 323.567 16.83C323.816 16.83 324.026 16.745 324.196 16.575C324.377 16.3937 324.473 16.1783 324.485 15.929H324.519ZM324.519 7.871H324.485C324.473 7.61033 324.377 7.395 324.196 7.225C324.026 7.055 323.816 6.97 323.567 6.97C323.555 6.97 323.516 6.97 323.448 6.97C323.38 6.97 323.346 6.97 323.346 6.97V6.8H324.604L324.519 7.871ZM336.513 6.8V17H334.065V6.8H336.513ZM334.116 15.929V17H332.875V16.83C332.875 16.83 332.909 16.83 332.977 16.83C333.045 16.83 333.085 16.83 333.096 16.83C333.357 16.83 333.583 16.745 333.776 16.575C333.969 16.3937 334.065 16.1783 334.065 15.929H334.116ZM336.479 15.929H336.513C336.524 16.1783 336.621 16.3937 336.802 16.575C336.995 16.745 337.227 16.83 337.499 16.83C337.499 16.83 337.527 16.83 337.584 16.83C337.652 16.83 337.692 16.83 337.703 16.83V17H336.479V15.929ZM336.479 7.871V6.8H337.703L337.686 6.97C337.686 6.97 337.658 6.97 337.601 6.97C337.544 6.97 337.51 6.97 337.499 6.97C337.227 6.97 336.995 7.055 336.802 7.225C336.621 7.395 336.524 7.61033 336.513 7.871H336.479ZM334.116 7.871H334.065C334.065 7.61033 333.969 7.395 333.776 7.225C333.583 7.055 333.351 6.97 333.079 6.97C333.079 6.97 333.045 6.97 332.977 6.97C332.909 6.97 332.875 6.97 332.875 6.97V6.8H334.116V7.871ZM342.271 6.8H344.107C344.571 6.8 345.025 6.851 345.467 6.953C345.909 7.04367 346.305 7.19667 346.657 7.412C347.008 7.616 347.286 7.89933 347.49 8.262C347.705 8.61333 347.813 9.05533 347.813 9.588C347.813 9.98467 347.728 10.3813 347.558 10.778C347.399 11.1633 347.144 11.4977 346.793 11.781C346.453 12.0643 346.005 12.2513 345.45 12.342C345.778 12.444 346.09 12.6423 346.385 12.937C346.691 13.2317 346.929 13.5093 347.099 13.77C347.144 13.8607 347.223 14.008 347.337 14.212C347.45 14.4047 347.592 14.6313 347.762 14.892C347.943 15.1413 348.13 15.402 348.323 15.674C348.549 15.98 348.748 16.218 348.918 16.388C349.088 16.5467 349.263 16.66 349.445 16.728C349.626 16.796 349.836 16.83 350.074 16.83V17H348.646C348.034 17 347.512 16.9547 347.082 16.864C346.662 16.7733 346.294 16.609 345.977 16.371C345.671 16.1217 345.387 15.7873 345.127 15.368C345.025 15.2207 344.917 15.045 344.804 14.841C344.69 14.6257 344.577 14.4103 344.464 14.195C344.35 13.9797 344.248 13.77 344.158 13.566C344.078 13.362 344.022 13.192 343.988 13.056C343.84 12.6933 343.67 12.4327 343.478 12.274C343.296 12.104 343.126 12.019 342.968 12.019V11.866C342.968 11.866 343.007 11.866 343.087 11.866C343.166 11.866 343.268 11.866 343.393 11.866C343.631 11.866 343.863 11.8263 344.09 11.747C344.328 11.6563 344.543 11.492 344.736 11.254C344.928 11.0047 345.07 10.642 345.161 10.166C345.183 10.098 345.2 10.0017 345.212 9.877C345.234 9.75233 345.24 9.61067 345.229 9.452C345.206 9.03267 345.127 8.69833 344.991 8.449C344.866 8.18833 344.707 7.99567 344.515 7.871C344.322 7.735 344.124 7.64433 343.92 7.599C343.727 7.54233 343.557 7.514 343.41 7.514C343.194 7.50267 342.996 7.50267 342.815 7.514C342.645 7.514 342.514 7.50833 342.424 7.497C342.412 7.497 342.395 7.44033 342.373 7.327C342.35 7.20233 342.327 7.08333 342.305 6.97C342.282 6.85667 342.271 6.8 342.271 6.8ZM342.441 6.8V17H339.976V6.8H342.441ZM340.027 15.929L340.095 17H338.871V16.83C338.882 16.83 338.91 16.83 338.956 16.83C339.012 16.83 339.052 16.83 339.075 16.83C339.324 16.83 339.534 16.745 339.704 16.575C339.885 16.3937 339.981 16.1783 339.993 15.929H340.027ZM340.027 7.854H339.993C339.981 7.59333 339.885 7.38367 339.704 7.225C339.534 7.055 339.33 6.97 339.092 6.97C339.058 6.97 339.012 6.97 338.956 6.97C338.91 6.97 338.882 6.97 338.871 6.97V6.8H340.095L340.027 7.854ZM342.407 15.929H342.441C342.441 16.2123 342.537 16.4333 342.73 16.592C342.934 16.7507 343.149 16.83 343.376 16.83C343.376 16.83 343.398 16.83 343.444 16.83C343.489 16.83 343.523 16.83 343.546 16.83V17H342.322L342.407 15.929ZM355.102 6.341L360.134 16.915H357.261L354.099 9.452L355.102 6.341ZM351.906 15.878C351.781 16.184 351.798 16.422 351.957 16.592C352.115 16.7507 352.291 16.83 352.484 16.83H352.62V17H349.22V16.83C349.22 16.83 349.242 16.83 349.288 16.83C349.333 16.83 349.356 16.83 349.356 16.83C349.582 16.83 349.82 16.762 350.07 16.626C350.319 16.4787 350.523 16.2293 350.682 15.878H351.906ZM355.102 6.341L355.136 8.381L351.447 16.949H350.189L354.167 8.398C354.189 8.33 354.24 8.211 354.32 8.041C354.399 7.85967 354.484 7.66133 354.575 7.446C354.665 7.21933 354.75 7.00967 354.83 6.817C354.909 6.613 354.954 6.45433 354.966 6.341H355.102ZM356.581 13.668V14.331H352.246V13.668H356.581ZM356.836 15.878H359.641C359.811 16.2293 360.02 16.4787 360.27 16.626C360.519 16.762 360.757 16.83 360.984 16.83C360.984 16.83 361.006 16.83 361.052 16.83C361.097 16.83 361.12 16.83 361.12 16.83V17H356.122V16.83H356.258C356.45 16.83 356.626 16.7507 356.785 16.592C356.943 16.422 356.96 16.184 356.836 15.878Z" fill="#6F4439"/>
<path d="M148 12H237.014" stroke="#6F4439"/>
</svg>
