<svg width="24" height="29" viewBox="0 0 24 29" fill="none" xmlns="http://www.w3.org/2000/svg">
<path d="M23.8251 20.1312L21.186 15.2589V10.1858C21.186 5.12075 17.0652 1 12.0002 1C6.93509 1 2.81435 5.12075 2.81435 10.1858V15.2589L0.175114 20.1312C0.0554271 20.3521 -0.00481165 20.6003 0.000300254 20.8515C0.00541215 21.1028 0.0756993 21.3483 0.204274 21.5642C0.33285 21.7801 0.515302 21.9589 0.733755 22.083C0.952207 22.2072 1.19917 22.2724 1.45043 22.2724H6.70418C6.6898 22.4317 6.682 22.5927 6.682 22.7559C6.682 24.1663 7.2423 25.519 8.23964 26.5164C9.23697 27.5137 10.5897 28.074 12.0001 28.074C13.4106 28.074 14.7632 27.5137 15.7606 26.5164C16.7579 25.519 17.3182 24.1663 17.3182 22.7559C17.3182 22.5927 17.3104 22.4317 17.296 22.2724H22.5498C22.801 22.2724 23.0479 22.2071 23.2664 22.0829C23.4848 21.9588 23.6672 21.78 23.7958 21.5642C23.9243 21.3483 23.9946 21.1027 23.9997 20.8515C24.0048 20.6004 23.9446 20.3521 23.8249 20.1312H23.8251ZM15.3844 22.7559C15.3848 23.221 15.2893 23.6811 15.1039 24.1077C14.9185 24.5342 14.6472 24.9179 14.3069 25.2349C13.9666 25.552 13.5646 25.7954 13.126 25.9501C12.6875 26.1049 12.2217 26.1675 11.7578 26.1342C11.2939 26.1009 10.8419 25.9723 10.4299 25.7565C10.0179 25.5408 9.65482 25.2424 9.3633 24.88C9.07178 24.5176 8.85807 24.0991 8.73552 23.6504C8.61297 23.2018 8.58421 22.7327 8.65103 22.2724H15.3492C15.3725 22.4325 15.3842 22.5941 15.3844 22.7559ZM2.26211 20.3386L4.7482 15.749V10.1858C4.7482 8.26248 5.51225 6.41792 6.87225 5.05791C8.23226 3.6979 10.0768 2.93386 12.0002 2.93386C13.9235 2.93386 15.7681 3.6979 17.1281 5.05791C18.4881 6.41792 19.2521 8.26248 19.2521 10.1858V15.749L21.7381 20.3386H2.26211Z" fill="#421C13"/>
<circle cx="19" cy="5" r="5" fill="#FF0000"/>
</svg>
