<svg width="30" height="30" viewBox="0 0 30 30" fill="none" xmlns="http://www.w3.org/2000/svg">
<path d="M28.75 13.75C28.7476 14.8468 28.4578 15.9237 27.9095 16.8736C27.3612 17.8235 26.5735 18.6131 25.625 19.1638C25.3381 19.3269 24.9983 19.3699 24.6797 19.2834C24.3612 19.197 24.0897 18.988 23.9247 18.7021C23.7596 18.4163 23.7144 18.0767 23.7987 17.7576C23.8831 17.4385 24.0903 17.1657 24.375 16.9988C25.0905 16.5863 25.6498 15.9491 25.9661 15.1862C26.2824 14.4233 26.338 13.5773 26.1243 12.7796C25.9106 11.9818 25.4395 11.277 24.7842 10.7744C24.1288 10.2718 23.3259 9.99956 22.5 10C22.073 10.0061 21.6501 10.0856 21.25 10.235C20.9419 10.3445 20.6031 10.3289 20.3063 10.1915C20.0095 10.0541 19.7784 9.80584 19.6625 9.5C19.3101 8.54732 18.6744 7.72545 17.8408 7.14501C17.0072 6.56457 16.0158 6.2534 15 6.2534C13.9843 6.2534 12.9929 6.56457 12.1593 7.14501C11.3257 7.72545 10.6899 8.54732 10.3375 9.5C10.2217 9.80584 9.99057 10.0541 9.69379 10.1915C9.39701 10.3289 9.0582 10.3445 8.75003 10.235C8.18618 10.0237 7.57926 9.95307 6.98195 10.0294C6.38464 10.1057 5.81496 10.3266 5.32234 10.6729C4.82972 11.0192 4.42903 11.4805 4.15504 12.0167C3.88105 12.5529 3.74203 13.1479 3.75003 13.75C3.751 14.4084 3.92466 15.055 4.25367 15.6253C4.58269 16.1956 5.05555 16.6696 5.62503 17C5.90979 17.1669 6.11696 17.4397 6.20133 17.7589C6.2857 18.078 6.24042 18.4175 6.07538 18.7034C5.91033 18.9892 5.63892 19.1982 5.32037 19.2847C5.00181 19.3712 4.66198 19.3281 4.37503 19.165C3.18236 18.4776 2.24999 17.4157 1.72268 16.1441C1.19538 14.8725 1.10264 13.4624 1.45886 12.1327C1.81508 10.803 2.60033 9.62809 3.6927 8.7904C4.78507 7.95272 6.12345 7.49911 7.50003 7.5C7.82807 7.5 8.15552 7.52802 8.47879 7.58375C9.12569 6.42177 10.0713 5.45375 11.2178 4.77982C12.3644 4.10589 13.6701 3.75055 15 3.75055C16.33 3.75055 17.6357 4.10589 18.7822 4.77982C19.9288 5.45375 20.8744 6.42177 21.5213 7.58375C21.8446 7.52802 22.172 7.5 22.5 7.5C24.157 7.50199 25.7456 8.16111 26.9173 9.33278C28.0889 10.5044 28.748 12.093 28.75 13.75ZM15 26.25C11.7763 26.25 10 24.5625 10 21.5C10 17.4463 14.0463 14.1625 14.2188 14.0238C14.4405 13.8462 14.716 13.7495 15 13.7495C15.284 13.7495 15.5596 13.8462 15.7813 14.0238C15.9538 14.1625 20 17.4463 20 21.5C20 24.5625 18.2238 26.25 15 26.25ZM15 23.75C17.0813 23.75 17.5 22.89 17.5 21.5C17.2758 19.6503 16.3874 17.945 15 16.7013C13.6127 17.945 12.7243 19.6503 12.5 21.5C12.5 22.89 12.9188 23.75 15 23.75Z" fill="#6F4439"/>
</svg>
