<svg width="102" height="79" viewBox="0 0 102 79" fill="none" xmlns="http://www.w3.org/2000/svg">
<path d="M36.9438 10.3472H33.8809L33.8643 9.06055H36.645C37.1043 9.06055 37.5055 8.98307 37.8486 8.82812C38.1917 8.67318 38.4574 8.45182 38.6455 8.16406C38.8392 7.87077 38.936 7.52214 38.936 7.11816C38.936 6.67546 38.8503 6.31576 38.6787 6.03906C38.5127 5.75684 38.2554 5.55208 37.9067 5.4248C37.5636 5.29199 37.1265 5.22559 36.5952 5.22559H34.2378V16H32.6357V3.91406H36.5952C37.215 3.91406 37.7684 3.9777 38.2554 4.10498C38.7424 4.22673 39.1546 4.42041 39.4922 4.68604C39.8353 4.94613 40.0954 5.27816 40.2725 5.68213C40.4495 6.0861 40.5381 6.57031 40.5381 7.13477C40.5381 7.63281 40.4108 8.08382 40.1562 8.48779C39.9017 8.88623 39.5475 9.21273 39.0938 9.46729C38.6455 9.72184 38.1198 9.88509 37.5166 9.95703L36.9438 10.3472ZM36.8691 16H33.25L34.1548 14.6968H36.8691C37.3783 14.6968 37.8099 14.6082 38.1641 14.4312C38.5238 14.2541 38.7977 14.005 38.9858 13.6841C39.174 13.3576 39.2681 12.973 39.2681 12.5303C39.2681 12.082 39.1878 11.6947 39.0273 11.3682C38.8669 11.0417 38.6151 10.7899 38.272 10.6128C37.9289 10.4357 37.4862 10.3472 36.9438 10.3472H34.6611L34.6777 9.06055H37.7988L38.1392 9.52539C38.7202 9.5752 39.2127 9.74121 39.6167 10.0234C40.0207 10.3001 40.3278 10.6543 40.5381 11.0859C40.7539 11.5176 40.8618 11.9935 40.8618 12.5137C40.8618 13.2663 40.6958 13.9027 40.3638 14.4229C40.0373 14.9375 39.5752 15.3304 38.9775 15.6016C38.3799 15.8672 37.6771 16 36.8691 16ZM42.5884 11.6089V11.418C42.5884 10.7705 42.6825 10.1701 42.8706 9.6167C43.0588 9.05778 43.3299 8.57357 43.6841 8.16406C44.0382 7.74902 44.4671 7.42806 44.9707 7.20117C45.4743 6.96875 46.0387 6.85254 46.6641 6.85254C47.2949 6.85254 47.8621 6.96875 48.3657 7.20117C48.8748 7.42806 49.3065 7.74902 49.6606 8.16406C50.0203 8.57357 50.2943 9.05778 50.4824 9.6167C50.6706 10.1701 50.7646 10.7705 50.7646 11.418V11.6089C50.7646 12.2563 50.6706 12.8568 50.4824 13.4102C50.2943 13.9635 50.0203 14.4478 49.6606 14.8628C49.3065 15.2723 48.8776 15.5933 48.374 15.8257C47.876 16.0526 47.3115 16.166 46.6807 16.166C46.0498 16.166 45.4826 16.0526 44.979 15.8257C44.4754 15.5933 44.0438 15.2723 43.6841 14.8628C43.3299 14.4478 43.0588 13.9635 42.8706 13.4102C42.6825 12.8568 42.5884 12.2563 42.5884 11.6089ZM44.124 11.418V11.6089C44.124 12.0571 44.1766 12.4805 44.2817 12.8789C44.3869 13.2718 44.5446 13.6204 44.7549 13.9248C44.9707 14.2292 45.2391 14.4699 45.5601 14.647C45.881 14.8185 46.2546 14.9043 46.6807 14.9043C47.1012 14.9043 47.4692 14.8185 47.7847 14.647C48.1056 14.4699 48.3713 14.2292 48.5815 13.9248C48.7918 13.6204 48.9495 13.2718 49.0547 12.8789C49.1654 12.4805 49.2207 12.0571 49.2207 11.6089V11.418C49.2207 10.9753 49.1654 10.5575 49.0547 10.1646C48.9495 9.76611 48.7891 9.41471 48.5732 9.11035C48.363 8.80046 48.0973 8.55697 47.7764 8.37988C47.4609 8.2028 47.0902 8.11426 46.6641 8.11426C46.2435 8.11426 45.8727 8.2028 45.5518 8.37988C45.2363 8.55697 44.9707 8.80046 44.7549 9.11035C44.5446 9.41471 44.3869 9.76611 44.2817 10.1646C44.1766 10.5575 44.124 10.9753 44.124 11.418ZM57.9863 14.4644V9.84082C57.9863 9.48665 57.9144 9.17952 57.7705 8.91943C57.6322 8.65381 57.4219 8.44906 57.1396 8.30518C56.8574 8.1613 56.5088 8.08936 56.0938 8.08936C55.7064 8.08936 55.366 8.15576 55.0728 8.28857C54.785 8.42139 54.5581 8.5957 54.3921 8.81152C54.2316 9.02734 54.1514 9.25977 54.1514 9.50879H52.6157C52.6157 9.18783 52.6987 8.86963 52.8647 8.5542C53.0308 8.23877 53.2687 7.95378 53.5786 7.69922C53.894 7.43913 54.2703 7.23438 54.7075 7.08496C55.1502 6.93001 55.6427 6.85254 56.1851 6.85254C56.8381 6.85254 57.4136 6.96322 57.9116 7.18457C58.4152 7.40592 58.8081 7.74072 59.0903 8.18896C59.3781 8.63167 59.522 9.18783 59.522 9.85742V14.041C59.522 14.3398 59.5469 14.658 59.5967 14.9956C59.652 15.3332 59.7323 15.6237 59.8374 15.8672V16H58.2354C58.1579 15.8229 58.097 15.5877 58.0527 15.2944C58.0085 14.9956 57.9863 14.7189 57.9863 14.4644ZM58.252 10.5547L58.2686 11.6338H56.7163C56.2791 11.6338 55.889 11.6698 55.5459 11.7417C55.2028 11.8081 54.915 11.9105 54.6826 12.0488C54.4502 12.1872 54.2731 12.3615 54.1514 12.5718C54.0296 12.7765 53.9688 13.0173 53.9688 13.2939C53.9688 13.5762 54.0324 13.8335 54.1597 14.0659C54.2869 14.2983 54.4779 14.4837 54.7324 14.6221C54.9925 14.7549 55.3107 14.8213 55.687 14.8213C56.1574 14.8213 56.5724 14.7217 56.9321 14.5225C57.2918 14.3232 57.5768 14.0798 57.7871 13.792C58.0029 13.5042 58.1191 13.2248 58.1357 12.9536L58.7915 13.6924C58.7528 13.9248 58.6476 14.1821 58.4761 14.4644C58.3045 14.7466 58.0749 15.0177 57.7871 15.2778C57.5049 15.5324 57.1673 15.7454 56.7744 15.917C56.387 16.083 55.9499 16.166 55.4629 16.166C54.8542 16.166 54.3201 16.047 53.8608 15.8091C53.4071 15.5711 53.0529 15.2529 52.7983 14.8545C52.5493 14.4505 52.4248 13.9995 52.4248 13.5015C52.4248 13.02 52.5189 12.5967 52.707 12.2314C52.8952 11.8607 53.1663 11.5535 53.5205 11.3101C53.8747 11.061 54.3008 10.8729 54.7988 10.7456C55.2969 10.6183 55.853 10.5547 56.4673 10.5547H58.252Z" fill="#421C13" fill-opacity="0.7"/>
<path d="M35.6709 32.9141H37.2231L41.1826 42.7671L45.1338 32.9141H46.6943L41.7803 45H40.5684L35.6709 32.9141ZM35.1646 32.9141H36.5342L36.7583 40.2852V45H35.1646V32.9141ZM45.8228 32.9141H47.1924V45H45.5986V40.2852L45.8228 32.9141ZM53.501 45.166C52.8757 45.166 52.3084 45.0609 51.7993 44.8506C51.2957 44.6348 50.8613 44.3332 50.4961 43.9458C50.1364 43.5584 49.8597 43.0991 49.666 42.5679C49.4723 42.0366 49.3755 41.4556 49.3755 40.8247V40.4761C49.3755 39.7456 49.4834 39.0954 49.6992 38.5254C49.915 37.9499 50.2083 37.4629 50.5791 37.0645C50.9499 36.666 51.3704 36.3644 51.8408 36.1597C52.3112 35.9549 52.7982 35.8525 53.3018 35.8525C53.9437 35.8525 54.4971 35.9632 54.9619 36.1846C55.4323 36.4059 55.8169 36.7158 56.1157 37.1143C56.4146 37.5072 56.6359 37.972 56.7798 38.5088C56.9237 39.04 56.9956 39.6211 56.9956 40.252V40.9409H50.2886V39.6875H55.46V39.5713C55.4378 39.1729 55.3548 38.7855 55.2109 38.4092C55.0726 38.0329 54.8512 37.723 54.5469 37.4795C54.2425 37.236 53.8275 37.1143 53.3018 37.1143C52.9531 37.1143 52.6322 37.189 52.3389 37.3384C52.0456 37.4823 51.7938 37.6981 51.5835 37.9858C51.3732 38.2736 51.21 38.625 51.0938 39.04C50.9775 39.4551 50.9194 39.9338 50.9194 40.4761V40.8247C50.9194 41.2508 50.9775 41.652 51.0938 42.0283C51.2155 42.3991 51.3898 42.7256 51.6167 43.0078C51.8491 43.29 52.1286 43.5114 52.4551 43.6719C52.7871 43.8324 53.1634 43.9126 53.584 43.9126C54.1263 43.9126 54.5856 43.8019 54.9619 43.5806C55.3382 43.3592 55.6675 43.0632 55.9497 42.6924L56.8794 43.4312C56.6857 43.7244 56.4395 44.0039 56.1406 44.2695C55.8418 44.5352 55.4738 44.751 55.0366 44.917C54.605 45.083 54.0931 45.166 53.501 45.166ZM64.4497 43.2568V32.25H65.9937V45H64.5825L64.4497 43.2568ZM58.4067 40.6089V40.4346C58.4067 39.7484 58.4897 39.1258 58.6558 38.5669C58.8273 38.0024 59.068 37.5182 59.3779 37.1143C59.6934 36.7103 60.0669 36.4004 60.4985 36.1846C60.9357 35.9632 61.4227 35.8525 61.9595 35.8525C62.5239 35.8525 63.0164 35.9521 63.437 36.1514C63.8631 36.3451 64.2228 36.63 64.5161 37.0063C64.8149 37.3771 65.0501 37.8254 65.2217 38.3511C65.3932 38.8768 65.5122 39.4717 65.5786 40.1357V40.8994C65.5177 41.5579 65.3988 42.1501 65.2217 42.6758C65.0501 43.2015 64.8149 43.6497 64.5161 44.0205C64.2228 44.3913 63.8631 44.6763 63.437 44.8755C63.0109 45.0692 62.5129 45.166 61.9429 45.166C61.4172 45.166 60.9357 45.0526 60.4985 44.8257C60.0669 44.5988 59.6934 44.2806 59.3779 43.8711C59.068 43.4616 58.8273 42.9801 58.6558 42.4268C58.4897 41.8678 58.4067 41.2619 58.4067 40.6089ZM59.9507 40.4346V40.6089C59.9507 41.0571 59.995 41.4777 60.0835 41.8706C60.1776 42.2635 60.3215 42.6094 60.5151 42.9082C60.7088 43.207 60.9551 43.4422 61.2539 43.6138C61.5527 43.7798 61.9097 43.8628 62.3247 43.8628C62.8338 43.8628 63.2516 43.7549 63.5781 43.5391C63.9102 43.3232 64.1758 43.0382 64.375 42.6841C64.5742 42.3299 64.7292 41.9453 64.8398 41.5303V39.5298C64.7734 39.2254 64.6766 38.9321 64.5493 38.6499C64.4276 38.3621 64.2671 38.1076 64.0679 37.8862C63.8742 37.6593 63.6335 37.4795 63.3457 37.3467C63.0635 37.2139 62.7287 37.1475 62.3413 37.1475C61.9207 37.1475 61.5583 37.236 61.2539 37.4131C60.9551 37.5846 60.7088 37.8226 60.5151 38.127C60.3215 38.4258 60.1776 38.7744 60.0835 39.1729C59.995 39.5658 59.9507 39.9863 59.9507 40.4346ZM70.0527 36.0186V45H68.5088V36.0186H70.0527ZM68.3926 33.6362C68.3926 33.3872 68.4673 33.1769 68.6167 33.0054C68.7716 32.8338 68.9985 32.748 69.2974 32.748C69.5907 32.748 69.8148 32.8338 69.9697 33.0054C70.1302 33.1769 70.2104 33.3872 70.2104 33.6362C70.2104 33.8742 70.1302 34.0789 69.9697 34.2505C69.8148 34.4165 69.5907 34.4995 69.2974 34.4995C68.9985 34.4995 68.7716 34.4165 68.6167 34.2505C68.4673 34.0789 68.3926 33.8742 68.3926 33.6362ZM77.814 43.4644V38.8408C77.814 38.4867 77.742 38.1795 77.5981 37.9194C77.4598 37.6538 77.2495 37.4491 76.9673 37.3052C76.6851 37.1613 76.3364 37.0894 75.9214 37.0894C75.534 37.0894 75.1937 37.1558 74.9004 37.2886C74.6126 37.4214 74.3857 37.5957 74.2197 37.8115C74.0592 38.0273 73.979 38.2598 73.979 38.5088H72.4434C72.4434 38.1878 72.5264 37.8696 72.6924 37.5542C72.8584 37.2388 73.0964 36.9538 73.4062 36.6992C73.7217 36.4391 74.098 36.2344 74.5352 36.085C74.9779 35.93 75.4704 35.8525 76.0127 35.8525C76.6657 35.8525 77.2412 35.9632 77.7393 36.1846C78.2428 36.4059 78.6357 36.7407 78.918 37.189C79.2057 37.6317 79.3496 38.1878 79.3496 38.8574V43.041C79.3496 43.3398 79.3745 43.658 79.4243 43.9956C79.4797 44.3332 79.5599 44.6237 79.665 44.8672V45H78.063C77.9855 44.8229 77.9246 44.5877 77.8804 44.2944C77.8361 43.9956 77.814 43.7189 77.814 43.4644ZM78.0796 39.5547L78.0962 40.6338H76.5439C76.1068 40.6338 75.7166 40.6698 75.3735 40.7417C75.0304 40.8081 74.7427 40.9105 74.5103 41.0488C74.2778 41.1872 74.1007 41.3615 73.979 41.5718C73.8573 41.7765 73.7964 42.0173 73.7964 42.2939C73.7964 42.5762 73.86 42.8335 73.9873 43.0659C74.1146 43.2983 74.3055 43.4837 74.5601 43.6221C74.8201 43.7549 75.1383 43.8213 75.5146 43.8213C75.985 43.8213 76.4001 43.7217 76.7598 43.5225C77.1195 43.3232 77.4045 43.0798 77.6147 42.792C77.8306 42.5042 77.9468 42.2248 77.9634 41.9536L78.6191 42.6924C78.5804 42.9248 78.4753 43.1821 78.3037 43.4644C78.1322 43.7466 77.9025 44.0177 77.6147 44.2778C77.3325 44.5324 76.995 44.7454 76.6021 44.917C76.2147 45.083 75.7775 45.166 75.2905 45.166C74.6818 45.166 74.1478 45.047 73.6885 44.8091C73.2347 44.5711 72.8805 44.2529 72.626 43.8545C72.377 43.4505 72.2524 42.9995 72.2524 42.5015C72.2524 42.02 72.3465 41.5967 72.5347 41.2314C72.7228 40.8607 72.994 40.5535 73.3481 40.3101C73.7023 40.061 74.1284 39.8729 74.6265 39.7456C75.1245 39.6183 75.6807 39.5547 76.2949 39.5547H78.0796ZM83.3008 37.936V45H81.7651V36.0186H83.2178L83.3008 37.936ZM82.9355 40.1689L82.2964 40.144C82.3019 39.5298 82.3932 38.9626 82.5703 38.4424C82.7474 37.9167 82.9964 37.4601 83.3174 37.0728C83.6383 36.6854 84.0202 36.3866 84.4629 36.1763C84.9111 35.9604 85.4064 35.8525 85.9487 35.8525C86.3914 35.8525 86.7899 35.9134 87.144 36.0352C87.4982 36.1514 87.7998 36.3395 88.0488 36.5996C88.3034 36.8597 88.4971 37.1973 88.6299 37.6123C88.7627 38.0218 88.8291 38.5226 88.8291 39.1147V45H87.2852V39.0981C87.2852 38.6278 87.216 38.2515 87.0776 37.9692C86.9393 37.6815 86.7373 37.474 86.4717 37.3467C86.2061 37.2139 85.8796 37.1475 85.4922 37.1475C85.1104 37.1475 84.7617 37.2277 84.4463 37.3882C84.1364 37.5487 83.868 37.77 83.6411 38.0522C83.4198 38.3345 83.2454 38.6582 83.1182 39.0234C82.9964 39.3831 82.9355 39.765 82.9355 40.1689ZM96.4575 43.4644V38.8408C96.4575 38.4867 96.3856 38.1795 96.2417 37.9194C96.1034 37.6538 95.8931 37.4491 95.6108 37.3052C95.3286 37.1613 94.98 37.0894 94.5649 37.0894C94.1776 37.0894 93.8372 37.1558 93.5439 37.2886C93.2562 37.4214 93.0293 37.5957 92.8633 37.8115C92.7028 38.0273 92.6226 38.2598 92.6226 38.5088H91.0869C91.0869 38.1878 91.1699 37.8696 91.3359 37.5542C91.502 37.2388 91.7399 36.9538 92.0498 36.6992C92.3652 36.4391 92.7415 36.2344 93.1787 36.085C93.6214 35.93 94.1139 35.8525 94.6562 35.8525C95.3092 35.8525 95.8848 35.9632 96.3828 36.1846C96.8864 36.4059 97.2793 36.7407 97.5615 37.189C97.8493 37.6317 97.9932 38.1878 97.9932 38.8574V43.041C97.9932 43.3398 98.0181 43.658 98.0679 43.9956C98.1232 44.3332 98.2035 44.6237 98.3086 44.8672V45H96.7065C96.6291 44.8229 96.5682 44.5877 96.5239 44.2944C96.4797 43.9956 96.4575 43.7189 96.4575 43.4644ZM96.7231 39.5547L96.7397 40.6338H95.1875C94.7503 40.6338 94.3602 40.6698 94.0171 40.7417C93.674 40.8081 93.3862 40.9105 93.1538 41.0488C92.9214 41.1872 92.7443 41.3615 92.6226 41.5718C92.5008 41.7765 92.4399 42.0173 92.4399 42.2939C92.4399 42.5762 92.5036 42.8335 92.6309 43.0659C92.7581 43.2983 92.9491 43.4837 93.2036 43.6221C93.4637 43.7549 93.7819 43.8213 94.1582 43.8213C94.6286 43.8213 95.0436 43.7217 95.4033 43.5225C95.763 43.3232 96.048 43.0798 96.2583 42.792C96.4741 42.5042 96.5903 42.2248 96.6069 41.9536L97.2627 42.6924C97.224 42.9248 97.1188 43.1821 96.9473 43.4644C96.7757 43.7466 96.5461 44.0177 96.2583 44.2778C95.9761 44.5324 95.6385 44.7454 95.2456 44.917C94.8582 45.083 94.4211 45.166 93.9341 45.166C93.3254 45.166 92.7913 45.047 92.332 44.8091C91.8783 44.5711 91.5241 44.2529 91.2695 43.8545C91.0205 43.4505 90.896 42.9995 90.896 42.5015C90.896 42.02 90.9901 41.5967 91.1782 41.2314C91.3664 40.8607 91.6375 40.5535 91.9917 40.3101C92.3459 40.061 92.772 39.8729 93.27 39.7456C93.7681 39.6183 94.3242 39.5547 94.9385 39.5547H96.7231Z" fill="#421C13" fill-opacity="0.7"/>
<path d="M34.9541 61.9141H38.9551C39.8626 61.9141 40.6291 62.0524 41.2544 62.3291C41.8853 62.6058 42.3639 63.0153 42.6904 63.5576C43.0225 64.0944 43.1885 64.7557 43.1885 65.5415C43.1885 66.0949 43.075 66.6012 42.8481 67.0605C42.6268 67.5143 42.3058 67.9017 41.8853 68.2227C41.4702 68.5381 40.9722 68.7733 40.3911 68.9282L39.9429 69.1025H36.1826L36.166 67.7993H39.0049C39.5804 67.7993 40.0591 67.6997 40.4409 67.5005C40.8228 67.2957 41.1105 67.0218 41.3042 66.6787C41.4979 66.3356 41.5947 65.9565 41.5947 65.5415C41.5947 65.0767 41.5034 64.6699 41.3208 64.3213C41.1382 63.9727 40.8504 63.7043 40.4575 63.5161C40.0701 63.3224 39.5693 63.2256 38.9551 63.2256H36.5562V74H34.9541V61.9141ZM42.0181 74L39.0796 68.5215L40.748 68.5132L43.728 73.9004V74H42.0181ZM50.6924 71.9248V65.0186H52.2363V74H50.7671L50.6924 71.9248ZM50.9829 70.0322L51.6221 70.0156C51.6221 70.6133 51.5584 71.1667 51.4312 71.6758C51.3094 72.1794 51.1102 72.6165 50.8335 72.9873C50.5568 73.3581 50.1943 73.6486 49.7461 73.8589C49.2979 74.0636 48.7528 74.166 48.1108 74.166C47.6737 74.166 47.2725 74.1024 46.9072 73.9751C46.5475 73.8478 46.2376 73.6514 45.9775 73.3857C45.7174 73.1201 45.5155 72.7743 45.3716 72.3481C45.2332 71.922 45.1641 71.4102 45.1641 70.8125V65.0186H46.6997V70.8291C46.6997 71.2331 46.744 71.5679 46.8325 71.8335C46.9266 72.0936 47.0511 72.3011 47.2061 72.4561C47.3665 72.6055 47.5436 72.7106 47.7373 72.7715C47.9365 72.8324 48.1413 72.8628 48.3516 72.8628C49.0046 72.8628 49.522 72.7383 49.9038 72.4893C50.2856 72.2347 50.5596 71.8944 50.7256 71.4683C50.8971 71.0366 50.9829 70.5579 50.9829 70.0322ZM56.2456 65.0186V74H54.7017V65.0186H56.2456ZM54.5854 62.6362C54.5854 62.3872 54.6602 62.1769 54.8096 62.0054C54.9645 61.8338 55.1914 61.748 55.4902 61.748C55.7835 61.748 56.0076 61.8338 56.1626 62.0054C56.3231 62.1769 56.4033 62.3872 56.4033 62.6362C56.4033 62.8742 56.3231 63.0789 56.1626 63.2505C56.0076 63.4165 55.7835 63.4995 55.4902 63.4995C55.1914 63.4995 54.9645 63.4165 54.8096 63.2505C54.6602 63.0789 54.5854 62.8742 54.5854 62.6362ZM60.2383 66.8032V74H58.6943V65.0186H60.1553L60.2383 66.8032ZM59.9229 69.1689L59.209 69.144C59.2145 68.5298 59.2948 67.9626 59.4497 67.4424C59.6047 66.9167 59.8343 66.4601 60.1387 66.0728C60.443 65.6854 60.8221 65.3866 61.2759 65.1763C61.7297 64.9604 62.2554 64.8525 62.853 64.8525C63.2736 64.8525 63.661 64.9134 64.0151 65.0352C64.3693 65.1514 64.6764 65.3368 64.9365 65.5913C65.1966 65.8459 65.3986 66.1724 65.5425 66.5708C65.6864 66.9692 65.7583 67.4507 65.7583 68.0151V74H64.2227V68.0898C64.2227 67.6195 64.1424 67.2432 63.9819 66.9609C63.827 66.6787 63.6056 66.474 63.3179 66.3467C63.0301 66.2139 62.6925 66.1475 62.3052 66.1475C61.8514 66.1475 61.4723 66.2277 61.168 66.3882C60.8636 66.5487 60.6201 66.77 60.4375 67.0522C60.2549 67.3345 60.1221 67.6582 60.0391 68.0234C59.9616 68.3831 59.9229 68.765 59.9229 69.1689ZM65.7417 68.3223L64.7124 68.6377C64.7179 68.1452 64.7982 67.672 64.9531 67.2183C65.1136 66.7645 65.3433 66.3605 65.6421 66.0063C65.9465 65.6522 66.32 65.3727 66.7627 65.168C67.2054 64.9577 67.7118 64.8525 68.2817 64.8525C68.7632 64.8525 69.1893 64.9162 69.5601 65.0435C69.9364 65.1707 70.2518 65.3672 70.5063 65.6328C70.7664 65.8929 70.9629 66.2277 71.0957 66.6372C71.2285 67.0467 71.2949 67.5337 71.2949 68.0981V74H69.751V68.0815C69.751 67.578 69.6707 67.1878 69.5103 66.9111C69.3553 66.6289 69.134 66.4325 68.8462 66.3218C68.564 66.2056 68.2264 66.1475 67.8335 66.1475C67.4959 66.1475 67.1971 66.2056 66.937 66.3218C66.6769 66.438 66.4583 66.5985 66.2812 66.8032C66.1042 67.0024 65.9686 67.2321 65.8745 67.4922C65.786 67.7523 65.7417 68.029 65.7417 68.3223Z" fill="#421C13" fill-opacity="0.7"/>
<circle cx="10.5" cy="10.5" r="10.5" fill="#619B63"/>
<circle cx="10.5" cy="39.5" r="10.5" fill="#CEBD21"/>
<circle cx="10.5" cy="68.5" r="10.5" fill="#A02121"/>
</svg>
