<svg width="128" height="58" viewBox="0 0 128 58" fill="none" xmlns="http://www.w3.org/2000/svg">
<path d="M35.3623 10.2578V46H30.8457V15.8975L21.7393 19.2178V15.1406L34.6543 10.2578H35.3623ZM63.4873 10.2578V46H58.9707V15.8975L49.8643 19.2178V15.1406L62.7793 10.2578H63.4873ZM76.3779 19.1689V17.2891C76.3779 15.9382 76.6709 14.7093 77.2568 13.6025C77.8428 12.4958 78.681 11.6087 79.7715 10.9414C80.862 10.2741 82.1559 9.94043 83.6533 9.94043C85.1833 9.94043 86.4854 10.2741 87.5596 10.9414C88.6501 11.6087 89.4883 12.4958 90.0742 13.6025C90.6602 14.7093 90.9531 15.9382 90.9531 17.2891V19.1689C90.9531 20.4873 90.6602 21.6999 90.0742 22.8066C89.5046 23.9134 88.6745 24.8005 87.584 25.4678C86.5098 26.1351 85.2158 26.4688 83.7021 26.4688C82.1885 26.4688 80.8783 26.1351 79.7715 25.4678C78.681 24.8005 77.8428 23.9134 77.2568 22.8066C76.6709 21.6999 76.3779 20.4873 76.3779 19.1689ZM79.7715 17.2891V19.1689C79.7715 19.9176 79.9098 20.6257 80.1865 21.293C80.4795 21.9603 80.9189 22.5055 81.5049 22.9287C82.0908 23.3356 82.8232 23.5391 83.7021 23.5391C84.5811 23.5391 85.3053 23.3356 85.875 22.9287C86.4447 22.5055 86.8678 21.9603 87.1445 21.293C87.4212 20.6257 87.5596 19.9176 87.5596 19.1689V17.2891C87.5596 16.5241 87.4131 15.8079 87.1201 15.1406C86.8434 14.457 86.4121 13.9118 85.8262 13.5049C85.2565 13.0817 84.5322 12.8701 83.6533 12.8701C82.7907 12.8701 82.0664 13.0817 81.4805 13.5049C80.9108 13.9118 80.4795 14.457 80.1865 15.1406C79.9098 15.8079 79.7715 16.5241 79.7715 17.2891ZM93.6875 39.1885V37.2842C93.6875 35.9495 93.9805 34.7288 94.5664 33.6221C95.1523 32.5153 95.9906 31.6283 97.0811 30.9609C98.1715 30.2936 99.4655 29.96 100.963 29.96C102.493 29.96 103.795 30.2936 104.869 30.9609C105.96 31.6283 106.798 32.5153 107.384 33.6221C107.97 34.7288 108.263 35.9495 108.263 37.2842V39.1885C108.263 40.5231 107.97 41.7438 107.384 42.8506C106.814 43.9574 105.984 44.8444 104.894 45.5117C103.819 46.179 102.525 46.5127 101.012 46.5127C99.498 46.5127 98.196 46.179 97.1055 45.5117C96.015 44.8444 95.1686 43.9574 94.5664 42.8506C93.9805 41.7438 93.6875 40.5231 93.6875 39.1885ZM97.0811 37.2842V39.1885C97.0811 39.9372 97.2194 40.6533 97.4961 41.3369C97.7891 42.0042 98.2285 42.5495 98.8145 42.9727C99.4004 43.3796 100.133 43.583 101.012 43.583C101.891 43.583 102.615 43.3796 103.185 42.9727C103.771 42.5495 104.202 42.0042 104.479 41.3369C104.755 40.6696 104.894 39.9535 104.894 39.1885V37.2842C104.894 36.5192 104.747 35.8031 104.454 35.1357C104.177 34.4684 103.746 33.9313 103.16 33.5244C102.59 33.1012 101.858 32.8896 100.963 32.8896C100.1 32.8896 99.376 33.1012 98.79 33.5244C98.2204 33.9313 97.7891 34.4684 97.4961 35.1357C97.2194 35.8031 97.0811 36.5192 97.0811 37.2842ZM102.086 15.5068L84.7275 43.29L82.1885 41.6787L99.5469 13.8955L102.086 15.5068Z" fill="#421C13" fill-opacity="0.9"/>
</svg>
